<svg xmlns="http://www.w3.org/2000/svg" xmlns:xlink="http://www.w3.org/1999/xlink" width="467" zoomAndPan="magnify" viewBox="0 0 350.25 107.249998" height="143" preserveAspectRatio="xMidYMid meet" version="1.0"><defs><g/><clipPath id="e7ee869caf"><path d="M 0.84375 24.992188 L 70.269531 24.992188 L 70.269531 94.417969 L 0.84375 94.417969 Z M 0.84375 24.992188 " clip-rule="nonzero"/></clipPath><clipPath id="5ca469f8cd"><path d="M 35.554688 94.417969 C 54.726562 94.417969 70.269531 78.875 70.269531 59.703125 C 70.269531 40.535156 54.726562 24.992188 35.554688 24.992188 C 16.382812 24.992188 0.84375 40.535156 0.84375 59.703125 C 0.84375 78.875 16.382812 94.417969 35.554688 94.417969 Z M 35.554688 94.417969 " clip-rule="nonzero"/></clipPath><clipPath id="d22ada19e0"><path d="M 4.238281 28.386719 L 70.265625 28.386719 L 70.265625 94.414062 L 4.238281 94.414062 Z M 4.238281 28.386719 " clip-rule="nonzero"/></clipPath><clipPath id="32e9e73226"><path d="M 37.25 94.414062 C 55.484375 94.414062 70.265625 79.632812 70.265625 61.402344 C 70.265625 43.167969 55.484375 28.386719 37.25 28.386719 C 19.019531 28.386719 4.238281 43.167969 4.238281 61.402344 C 4.238281 79.632812 19.019531 94.414062 37.25 94.414062 Z M 37.25 94.414062 " clip-rule="nonzero"/></clipPath><clipPath id="43fc47d8e3"><path d="M 8.546875 32.699219 L 66.890625 32.699219 L 66.890625 91.039062 L 8.546875 91.039062 Z M 8.546875 32.699219 " clip-rule="nonzero"/></clipPath><clipPath id="a46393c0ff"><path d="M 37.71875 91.039062 C 53.828125 91.039062 66.890625 77.976562 66.890625 61.867188 C 66.890625 45.757812 53.828125 32.699219 37.71875 32.699219 C 21.609375 32.699219 8.546875 45.757812 8.546875 61.867188 C 8.546875 77.976562 21.609375 91.039062 37.71875 91.039062 Z M 37.71875 91.039062 " clip-rule="nonzero"/></clipPath><clipPath id="06b051e713"><path d="M 8.546875 32.695312 L 64.03125 32.695312 L 64.03125 88.179688 L 8.546875 88.179688 Z M 8.546875 32.695312 " clip-rule="nonzero"/></clipPath><clipPath id="23152ee3f6"><path d="M 36.289062 88.179688 C 51.609375 88.179688 64.03125 75.761719 64.03125 60.4375 C 64.03125 45.117188 51.609375 32.695312 36.289062 32.695312 C 20.96875 32.695312 8.546875 45.117188 8.546875 60.4375 C 8.546875 75.761719 20.96875 88.179688 36.289062 88.179688 Z M 36.289062 88.179688 " clip-rule="nonzero"/></clipPath><clipPath id="c0f9831ada"><path d="M 14.957031 40.53125 L 55 40.53125 L 55 88.464844 L 14.957031 88.464844 Z M 14.957031 40.53125 " clip-rule="nonzero"/></clipPath></defs><g clip-path="url(#e7ee869caf)"><g clip-path="url(#5ca469f8cd)"><path fill="#ffffff" d="M 70.269531 94.417969 L 0.84375 94.417969 L 0.84375 24.992188 L 70.269531 24.992188 Z M 70.269531 94.417969 " fill-opacity="1" fill-rule="nonzero"/></g></g><g clip-path="url(#d22ada19e0)"><g clip-path="url(#32e9e73226)"><path fill="#3e6606" d="M 70.265625 94.414062 L 4.238281 94.414062 L 4.238281 28.386719 L 70.265625 28.386719 Z M 70.265625 94.414062 " fill-opacity="1" fill-rule="nonzero"/></g></g><g clip-path="url(#43fc47d8e3)"><g clip-path="url(#a46393c0ff)"><path fill="#ffffff" d="M 66.890625 91.039062 L 8.546875 91.039062 L 8.546875 32.699219 L 66.890625 32.699219 Z M 66.890625 91.039062 " fill-opacity="1" fill-rule="nonzero"/></g></g><g clip-path="url(#06b051e713)"><g clip-path="url(#23152ee3f6)"><path fill="#3e6606" d="M 64.03125 88.179688 L 8.546875 88.179688 L 8.546875 32.695312 L 64.03125 32.695312 Z M 64.03125 88.179688 " fill-opacity="1" fill-rule="nonzero"/></g></g><g clip-path="url(#c0f9831ada)"><path fill="#ffffff" d="M 37 76.878906 C 36.53125 77.484375 36.679688 77.8125 37.4375 77.867188 C 42.46875 77.75 47.21875 75.492188 50.484375 71.664062 C 53.753906 67.832031 55.222656 62.773438 54.53125 57.78125 C 49.28125 64.59375 36.765625 65.277344 35.359375 73.867188 C 34.976562 67.734375 34.785156 61.605469 35.402344 55.496094 C 40.117188 48.980469 43.917969 45.671875 51.421875 43.167969 C 42.652344 41.839844 37.210938 45.234375 35.117188 53.324219 C 35.710938 46.746094 32.914062 42.648438 26.453125 40.53125 C 31.144531 44.042969 32.5625 48.308594 34.273438 54.003906 C 33.828125 57.699219 33.574219 61.421875 33.445312 65.136719 C 32.816406 61.976562 31.070312 59.082031 28.546875 56.910156 C 24.953125 53.835938 19.535156 52.441406 14.96875 53.707031 C 22.035156 57.433594 17.851562 69.542969 32.09375 69.160156 C 30.601562 64.53125 27.515625 59.878906 22.769531 57.558594 C 26.984375 58.515625 30.464844 62.0625 32.402344 66.054688 C 33.730469 68.777344 33.382812 71.949219 33.304688 74.953125 C 33.167969 80.6875 33.59375 84.773438 33.785156 90.511719 L 36.382812 90.480469 C 36.234375 85.957031 34.210938 77.21875 36.957031 73.78125 C 39.332031 70.8125 43.269531 67.679688 47.601562 66.171875 C 44.078125 68.332031 39.320312 72.980469 37 76.878906 " fill-opacity="1" fill-rule="evenodd"/></g><g fill="#ffffff" fill-opacity="1"><g transform="translate(83.197073, 68.825269)"><g><path d="M 26.125 -22.96875 C 25.363281 -24.34375 24.320312 -25.390625 23 -26.109375 C 21.6875 -26.835938 20.15625 -27.203125 18.40625 -27.203125 C 16.457031 -27.203125 14.726562 -26.757812 13.21875 -25.875 C 11.71875 -25 10.539062 -23.742188 9.6875 -22.109375 C 8.84375 -20.484375 8.421875 -18.601562 8.421875 -16.46875 C 8.421875 -14.269531 8.851562 -12.351562 9.71875 -10.71875 C 10.582031 -9.09375 11.78125 -7.835938 13.3125 -6.953125 C 14.851562 -6.078125 16.644531 -5.640625 18.6875 -5.640625 C 21.195312 -5.640625 23.25 -6.304688 24.84375 -7.640625 C 26.445312 -8.972656 27.5 -10.832031 28 -13.21875 L 16.703125 -13.21875 L 16.703125 -18.265625 L 34.5 -18.265625 L 34.5 -12.515625 C 34.0625 -10.222656 33.117188 -8.101562 31.671875 -6.15625 C 30.234375 -4.21875 28.375 -2.660156 26.09375 -1.484375 C 23.820312 -0.304688 21.273438 0.28125 18.453125 0.28125 C 15.273438 0.28125 12.410156 -0.429688 9.859375 -1.859375 C 7.304688 -3.285156 5.296875 -5.269531 3.828125 -7.8125 C 2.367188 -10.351562 1.640625 -13.238281 1.640625 -16.46875 C 1.640625 -19.695312 2.367188 -22.585938 3.828125 -25.140625 C 5.296875 -27.703125 7.304688 -29.695312 9.859375 -31.125 C 12.410156 -32.550781 15.257812 -33.265625 18.40625 -33.265625 C 22.101562 -33.265625 25.316406 -32.363281 28.046875 -30.5625 C 30.773438 -28.757812 32.660156 -26.226562 33.703125 -22.96875 Z M 26.125 -22.96875 "/></g></g></g><g fill="#ffffff" fill-opacity="1"><g transform="translate(119.341759, 68.825269)"><g><path d="M 9.84375 -22.03125 C 10.6875 -23.40625 11.789062 -24.484375 13.15625 -25.265625 C 14.519531 -26.054688 16.082031 -26.453125 17.84375 -26.453125 L 17.84375 -19.53125 L 16.09375 -19.53125 C 14.019531 -19.53125 12.457031 -19.039062 11.40625 -18.0625 C 10.363281 -17.09375 9.84375 -15.398438 9.84375 -12.984375 L 9.84375 0 L 3.25 0 L 3.25 -26.078125 L 9.84375 -26.078125 Z M 9.84375 -22.03125 "/></g></g></g><g fill="#ffffff" fill-opacity="1"><g transform="translate(138.355368, 68.825269)"><g><path d="M 14.828125 0.421875 C 12.316406 0.421875 10.054688 -0.132812 8.046875 -1.25 C 6.035156 -2.363281 4.457031 -3.9375 3.3125 -5.96875 C 2.164062 -8.007812 1.59375 -10.363281 1.59375 -13.03125 C 1.59375 -15.695312 2.179688 -18.050781 3.359375 -20.09375 C 4.535156 -22.132812 6.144531 -23.710938 8.1875 -24.828125 C 10.226562 -25.941406 12.503906 -26.5 15.015625 -26.5 C 17.523438 -26.5 19.796875 -25.941406 21.828125 -24.828125 C 23.867188 -23.710938 25.476562 -22.132812 26.65625 -20.09375 C 27.832031 -18.050781 28.421875 -15.695312 28.421875 -13.03125 C 28.421875 -10.363281 27.816406 -8.007812 26.609375 -5.96875 C 25.398438 -3.9375 23.769531 -2.363281 21.71875 -1.25 C 19.664062 -0.132812 17.367188 0.421875 14.828125 0.421875 Z M 14.828125 -5.3125 C 16.015625 -5.3125 17.132812 -5.601562 18.1875 -6.1875 C 19.238281 -6.769531 20.078125 -7.640625 20.703125 -8.796875 C 21.335938 -9.960938 21.65625 -11.375 21.65625 -13.03125 C 21.65625 -15.507812 21.003906 -17.414062 19.703125 -18.75 C 18.398438 -20.082031 16.804688 -20.75 14.921875 -20.75 C 13.035156 -20.75 11.457031 -20.082031 10.1875 -18.75 C 8.914062 -17.414062 8.28125 -15.507812 8.28125 -13.03125 C 8.28125 -10.550781 8.898438 -8.644531 10.140625 -7.3125 C 11.378906 -5.976562 12.941406 -5.3125 14.828125 -5.3125 Z M 14.828125 -5.3125 "/></g></g></g><g fill="#ffffff" fill-opacity="1"><g transform="translate(168.381811, 68.825269)"><g><path d="M 39.390625 -26.078125 L 31.765625 0 L 24.65625 0 L 19.90625 -18.21875 L 15.15625 0 L 8 0 L 0.328125 -26.078125 L 7.015625 -26.078125 L 11.625 -6.21875 L 16.609375 -26.078125 L 23.578125 -26.078125 L 28.46875 -6.265625 L 33.078125 -26.078125 Z M 39.390625 -26.078125 "/></g></g></g><g fill="#ffffff" fill-opacity="1"><g transform="translate(208.103316, 68.825269)"><g/></g></g><g fill="#ffffff" fill-opacity="1"><g transform="translate(219.304407, 68.825269)"><g><path d="M 47.15625 -32.84375 L 37.984375 0 L 30.21875 0 L 24.046875 -23.390625 L 17.59375 0 L 9.890625 0.046875 L 1.03125 -32.84375 L 8.09375 -32.84375 L 13.890625 -7.34375 L 20.5625 -32.84375 L 27.90625 -32.84375 L 34.21875 -7.484375 L 40.046875 -32.84375 Z M 47.15625 -32.84375 "/></g></g></g><g fill="#ffffff" fill-opacity="1"><g transform="translate(267.497322, 68.825269)"><g><path d="M 27.484375 -13.59375 C 27.484375 -12.65625 27.421875 -11.8125 27.296875 -11.0625 L 8.234375 -11.0625 C 8.390625 -9.175781 9.046875 -7.695312 10.203125 -6.625 C 11.367188 -5.5625 12.800781 -5.03125 14.5 -5.03125 C 16.945312 -5.03125 18.6875 -6.082031 19.71875 -8.1875 L 26.828125 -8.1875 C 26.078125 -5.675781 24.632812 -3.613281 22.5 -2 C 20.363281 -0.382812 17.742188 0.421875 14.640625 0.421875 C 12.128906 0.421875 9.875 -0.132812 7.875 -1.25 C 5.882812 -2.363281 4.332031 -3.9375 3.21875 -5.96875 C 2.101562 -8.007812 1.546875 -10.363281 1.546875 -13.03125 C 1.546875 -15.726562 2.09375 -18.097656 3.1875 -20.140625 C 4.289062 -22.179688 5.832031 -23.75 7.8125 -24.84375 C 9.789062 -25.945312 12.066406 -26.5 14.640625 -26.5 C 17.117188 -26.5 19.335938 -25.960938 21.296875 -24.890625 C 23.253906 -23.828125 24.773438 -22.3125 25.859375 -20.34375 C 26.941406 -18.382812 27.484375 -16.132812 27.484375 -13.59375 Z M 20.65625 -15.484375 C 20.625 -17.179688 20.007812 -18.535156 18.8125 -19.546875 C 17.625 -20.566406 16.171875 -21.078125 14.453125 -21.078125 C 12.816406 -21.078125 11.441406 -20.582031 10.328125 -19.59375 C 9.210938 -18.613281 8.53125 -17.242188 8.28125 -15.484375 Z M 20.65625 -15.484375 "/></g></g></g><g fill="#ffffff" fill-opacity="1"><g transform="translate(296.535433, 68.825269)"><g><path d="M 9.84375 -34.828125 L 9.84375 0 L 3.25 0 L 3.25 -34.828125 Z M 9.84375 -34.828125 "/></g></g></g><g fill="#ffffff" fill-opacity="1"><g transform="translate(309.619057, 68.825269)"><g><path d="M 9.84375 -34.828125 L 9.84375 0 L 3.25 0 L 3.25 -34.828125 Z M 9.84375 -34.828125 "/></g></g></g><g fill="#ffffff" fill-opacity="1"><g transform="translate(100.764861, 91.182594)"><g><path d="M 6.640625 -8.203125 L 3.984375 -3.09375 L 3.984375 0 L 2.90625 0 L 2.90625 -3.09375 L 0.21875 -8.203125 L 1.40625 -8.203125 L 3.4375 -4.046875 L 5.453125 -8.203125 Z M 6.640625 -8.203125 "/></g></g></g><g fill="#ffffff" fill-opacity="1"><g transform="translate(107.634093, 91.182594)"><g><path d="M 3.71875 0.109375 C 3.113281 0.109375 2.566406 -0.0234375 2.078125 -0.296875 C 1.585938 -0.578125 1.203125 -0.96875 0.921875 -1.46875 C 0.640625 -1.976562 0.5 -2.566406 0.5 -3.234375 C 0.5 -3.890625 0.640625 -4.46875 0.921875 -4.96875 C 1.210938 -5.476562 1.601562 -5.867188 2.09375 -6.140625 C 2.59375 -6.410156 3.148438 -6.546875 3.765625 -6.546875 C 4.378906 -6.546875 4.929688 -6.410156 5.421875 -6.140625 C 5.921875 -5.867188 6.3125 -5.484375 6.59375 -4.984375 C 6.882812 -4.484375 7.03125 -3.898438 7.03125 -3.234375 C 7.03125 -2.566406 6.878906 -1.976562 6.578125 -1.46875 C 6.285156 -0.96875 5.890625 -0.578125 5.390625 -0.296875 C 4.890625 -0.0234375 4.332031 0.109375 3.71875 0.109375 Z M 3.71875 -0.828125 C 4.101562 -0.828125 4.460938 -0.914062 4.796875 -1.09375 C 5.140625 -1.28125 5.414062 -1.550781 5.625 -1.90625 C 5.832031 -2.269531 5.9375 -2.710938 5.9375 -3.234375 C 5.9375 -3.753906 5.832031 -4.191406 5.625 -4.546875 C 5.414062 -4.910156 5.144531 -5.179688 4.8125 -5.359375 C 4.488281 -5.535156 4.132812 -5.625 3.75 -5.625 C 3.363281 -5.625 3.003906 -5.535156 2.671875 -5.359375 C 2.347656 -5.179688 2.085938 -4.910156 1.890625 -4.546875 C 1.691406 -4.191406 1.59375 -3.753906 1.59375 -3.234375 C 1.59375 -2.710938 1.6875 -2.269531 1.875 -1.90625 C 2.070312 -1.539062 2.332031 -1.269531 2.65625 -1.09375 C 2.976562 -0.914062 3.332031 -0.828125 3.71875 -0.828125 Z M 3.71875 -0.828125 "/></g></g></g><g fill="#ffffff" fill-opacity="1"><g transform="translate(115.162014, 91.182594)"><g><path d="M 6.625 -6.453125 L 6.625 0 L 5.546875 0 L 5.546875 -0.953125 C 5.347656 -0.617188 5.066406 -0.359375 4.703125 -0.171875 C 4.335938 0.00390625 3.9375 0.09375 3.5 0.09375 C 2.988281 0.09375 2.535156 -0.0078125 2.140625 -0.21875 C 1.742188 -0.425781 1.425781 -0.738281 1.1875 -1.15625 C 0.957031 -1.570312 0.84375 -2.078125 0.84375 -2.671875 L 0.84375 -6.453125 L 1.90625 -6.453125 L 1.90625 -2.8125 C 1.90625 -2.175781 2.066406 -1.6875 2.390625 -1.34375 C 2.710938 -1 3.148438 -0.828125 3.703125 -0.828125 C 4.273438 -0.828125 4.722656 -1.003906 5.046875 -1.359375 C 5.378906 -1.710938 5.546875 -2.226562 5.546875 -2.90625 L 5.546875 -6.453125 Z M 6.625 -6.453125 "/></g></g></g><g fill="#ffffff" fill-opacity="1"><g transform="translate(122.689935, 91.182594)"><g><path d="M 1.984375 -5.40625 C 2.171875 -5.769531 2.4375 -6.050781 2.78125 -6.25 C 3.132812 -6.457031 3.5625 -6.5625 4.0625 -6.5625 L 4.0625 -5.453125 L 3.78125 -5.453125 C 2.582031 -5.453125 1.984375 -4.800781 1.984375 -3.5 L 1.984375 0 L 0.90625 0 L 0.90625 -6.453125 L 1.984375 -6.453125 Z M 1.984375 -5.40625 "/></g></g></g><g fill="#ffffff" fill-opacity="1"><g transform="translate(127.077303, 91.182594)"><g/></g></g><g fill="#ffffff" fill-opacity="1"><g transform="translate(130.217856, 91.182594)"><g><path d="M 6.390625 -5.796875 C 6.390625 -5.117188 6.15625 -4.550781 5.6875 -4.09375 C 5.21875 -3.644531 4.503906 -3.421875 3.546875 -3.421875 L 1.984375 -3.421875 L 1.984375 0 L 0.90625 0 L 0.90625 -8.203125 L 3.546875 -8.203125 C 4.472656 -8.203125 5.175781 -7.976562 5.65625 -7.53125 C 6.144531 -7.082031 6.390625 -6.503906 6.390625 -5.796875 Z M 3.546875 -4.3125 C 4.148438 -4.3125 4.59375 -4.4375 4.875 -4.6875 C 5.15625 -4.945312 5.296875 -5.316406 5.296875 -5.796875 C 5.296875 -6.804688 4.710938 -7.3125 3.546875 -7.3125 L 1.984375 -7.3125 L 1.984375 -4.3125 Z M 3.546875 -4.3125 "/></g></g></g><g fill="#ffffff" fill-opacity="1"><g transform="translate(137.028266, 91.182594)"><g><path d="M 6.78125 -3.46875 C 6.78125 -3.269531 6.769531 -3.054688 6.75 -2.828125 L 1.59375 -2.828125 C 1.632812 -2.191406 1.851562 -1.691406 2.25 -1.328125 C 2.644531 -0.972656 3.125 -0.796875 3.6875 -0.796875 C 4.15625 -0.796875 4.539062 -0.90625 4.84375 -1.125 C 5.15625 -1.34375 5.375 -1.628906 5.5 -1.984375 L 6.65625 -1.984375 C 6.488281 -1.367188 6.144531 -0.863281 5.625 -0.46875 C 5.101562 -0.0820312 4.457031 0.109375 3.6875 0.109375 C 3.082031 0.109375 2.535156 -0.0234375 2.046875 -0.296875 C 1.566406 -0.578125 1.1875 -0.96875 0.90625 -1.46875 C 0.632812 -1.976562 0.5 -2.566406 0.5 -3.234375 C 0.5 -3.898438 0.632812 -4.484375 0.90625 -4.984375 C 1.175781 -5.484375 1.550781 -5.867188 2.03125 -6.140625 C 2.507812 -6.410156 3.0625 -6.546875 3.6875 -6.546875 C 4.300781 -6.546875 4.84375 -6.410156 5.3125 -6.140625 C 5.789062 -5.878906 6.15625 -5.515625 6.40625 -5.046875 C 6.65625 -4.585938 6.78125 -4.0625 6.78125 -3.46875 Z M 5.6875 -3.6875 C 5.6875 -4.101562 5.59375 -4.457031 5.40625 -4.75 C 5.226562 -5.039062 4.984375 -5.257812 4.671875 -5.40625 C 4.367188 -5.5625 4.023438 -5.640625 3.640625 -5.640625 C 3.097656 -5.640625 2.632812 -5.46875 2.25 -5.125 C 1.875 -4.78125 1.660156 -4.300781 1.609375 -3.6875 Z M 5.6875 -3.6875 "/></g></g></g><g fill="#ffffff" fill-opacity="1"><g transform="translate(144.320945, 91.182594)"><g><path d="M 1.984375 -5.40625 C 2.171875 -5.769531 2.4375 -6.050781 2.78125 -6.25 C 3.132812 -6.457031 3.5625 -6.5625 4.0625 -6.5625 L 4.0625 -5.453125 L 3.78125 -5.453125 C 2.582031 -5.453125 1.984375 -4.800781 1.984375 -3.5 L 1.984375 0 L 0.90625 0 L 0.90625 -6.453125 L 1.984375 -6.453125 Z M 1.984375 -5.40625 "/></g></g></g><g fill="#ffffff" fill-opacity="1"><g transform="translate(148.708313, 91.182594)"><g><path d="M 3.1875 0.109375 C 2.695312 0.109375 2.253906 0.0234375 1.859375 -0.140625 C 1.460938 -0.316406 1.148438 -0.554688 0.921875 -0.859375 C 0.703125 -1.160156 0.578125 -1.503906 0.546875 -1.890625 L 1.65625 -1.890625 C 1.6875 -1.566406 1.835938 -1.300781 2.109375 -1.09375 C 2.378906 -0.894531 2.734375 -0.796875 3.171875 -0.796875 C 3.578125 -0.796875 3.898438 -0.882812 4.140625 -1.0625 C 4.378906 -1.25 4.5 -1.476562 4.5 -1.75 C 4.5 -2.03125 4.367188 -2.238281 4.109375 -2.375 C 3.859375 -2.519531 3.472656 -2.65625 2.953125 -2.78125 C 2.472656 -2.914062 2.082031 -3.046875 1.78125 -3.171875 C 1.476562 -3.296875 1.21875 -3.484375 1 -3.734375 C 0.789062 -3.992188 0.6875 -4.332031 0.6875 -4.75 C 0.6875 -5.082031 0.78125 -5.382812 0.96875 -5.65625 C 1.164062 -5.9375 1.445312 -6.15625 1.8125 -6.3125 C 2.175781 -6.46875 2.585938 -6.546875 3.046875 -6.546875 C 3.765625 -6.546875 4.34375 -6.363281 4.78125 -6 C 5.21875 -5.644531 5.453125 -5.15625 5.484375 -4.53125 L 4.40625 -4.53125 C 4.382812 -4.863281 4.25 -5.128906 4 -5.328125 C 3.757812 -5.535156 3.429688 -5.640625 3.015625 -5.640625 C 2.628906 -5.640625 2.320312 -5.554688 2.09375 -5.390625 C 1.863281 -5.234375 1.75 -5.019531 1.75 -4.75 C 1.75 -4.539062 1.816406 -4.367188 1.953125 -4.234375 C 2.097656 -4.097656 2.269531 -3.988281 2.46875 -3.90625 C 2.675781 -3.820312 2.96875 -3.726562 3.34375 -3.625 C 3.800781 -3.5 4.175781 -3.375 4.46875 -3.25 C 4.757812 -3.132812 5.007812 -2.953125 5.21875 -2.703125 C 5.425781 -2.460938 5.535156 -2.144531 5.546875 -1.75 C 5.546875 -1.394531 5.445312 -1.078125 5.25 -0.796875 C 5.050781 -0.515625 4.769531 -0.289062 4.40625 -0.125 C 4.050781 0.03125 3.644531 0.109375 3.1875 0.109375 Z M 3.1875 0.109375 "/></g></g></g><g fill="#ffffff" fill-opacity="1"><g transform="translate(154.848278, 91.182594)"><g><path d="M 3.71875 0.109375 C 3.113281 0.109375 2.566406 -0.0234375 2.078125 -0.296875 C 1.585938 -0.578125 1.203125 -0.96875 0.921875 -1.46875 C 0.640625 -1.976562 0.5 -2.566406 0.5 -3.234375 C 0.5 -3.890625 0.640625 -4.46875 0.921875 -4.96875 C 1.210938 -5.476562 1.601562 -5.867188 2.09375 -6.140625 C 2.59375 -6.410156 3.148438 -6.546875 3.765625 -6.546875 C 4.378906 -6.546875 4.929688 -6.410156 5.421875 -6.140625 C 5.921875 -5.867188 6.3125 -5.484375 6.59375 -4.984375 C 6.882812 -4.484375 7.03125 -3.898438 7.03125 -3.234375 C 7.03125 -2.566406 6.878906 -1.976562 6.578125 -1.46875 C 6.285156 -0.96875 5.890625 -0.578125 5.390625 -0.296875 C 4.890625 -0.0234375 4.332031 0.109375 3.71875 0.109375 Z M 3.71875 -0.828125 C 4.101562 -0.828125 4.460938 -0.914062 4.796875 -1.09375 C 5.140625 -1.28125 5.414062 -1.550781 5.625 -1.90625 C 5.832031 -2.269531 5.9375 -2.710938 5.9375 -3.234375 C 5.9375 -3.753906 5.832031 -4.191406 5.625 -4.546875 C 5.414062 -4.910156 5.144531 -5.179688 4.8125 -5.359375 C 4.488281 -5.535156 4.132812 -5.625 3.75 -5.625 C 3.363281 -5.625 3.003906 -5.535156 2.671875 -5.359375 C 2.347656 -5.179688 2.085938 -4.910156 1.890625 -4.546875 C 1.691406 -4.191406 1.59375 -3.753906 1.59375 -3.234375 C 1.59375 -2.710938 1.6875 -2.269531 1.875 -1.90625 C 2.070312 -1.539062 2.332031 -1.269531 2.65625 -1.09375 C 2.976562 -0.914062 3.332031 -0.828125 3.71875 -0.828125 Z M 3.71875 -0.828125 "/></g></g></g><g fill="#ffffff" fill-opacity="1"><g transform="translate(162.376199, 91.182594)"><g><path d="M 4.046875 -6.5625 C 4.828125 -6.5625 5.460938 -6.320312 5.953125 -5.84375 C 6.441406 -5.375 6.6875 -4.691406 6.6875 -3.796875 L 6.6875 0 L 5.625 0 L 5.625 -3.640625 C 5.625 -4.285156 5.460938 -4.78125 5.140625 -5.125 C 4.816406 -5.46875 4.378906 -5.640625 3.828125 -5.640625 C 3.265625 -5.640625 2.816406 -5.460938 2.484375 -5.109375 C 2.148438 -4.753906 1.984375 -4.238281 1.984375 -3.5625 L 1.984375 0 L 0.90625 0 L 0.90625 -6.453125 L 1.984375 -6.453125 L 1.984375 -5.53125 C 2.191406 -5.863281 2.476562 -6.117188 2.84375 -6.296875 C 3.207031 -6.472656 3.609375 -6.5625 4.046875 -6.5625 Z M 4.046875 -6.5625 "/></g></g></g><g fill="#ffffff" fill-opacity="1"><g transform="translate(169.90412, 91.182594)"><g><path d="M 0.5 -3.25 C 0.5 -3.90625 0.632812 -4.484375 0.90625 -4.984375 C 1.175781 -5.484375 1.539062 -5.867188 2 -6.140625 C 2.46875 -6.410156 2.988281 -6.546875 3.5625 -6.546875 C 4.125 -6.546875 4.613281 -6.425781 5.03125 -6.1875 C 5.445312 -5.945312 5.757812 -5.640625 5.96875 -5.265625 L 5.96875 -6.453125 L 7.046875 -6.453125 L 7.046875 0 L 5.96875 0 L 5.96875 -1.203125 C 5.75 -0.828125 5.429688 -0.515625 5.015625 -0.265625 C 4.597656 -0.015625 4.109375 0.109375 3.546875 0.109375 C 2.972656 0.109375 2.457031 -0.03125 2 -0.3125 C 1.539062 -0.59375 1.175781 -0.988281 0.90625 -1.5 C 0.632812 -2.007812 0.5 -2.59375 0.5 -3.25 Z M 5.96875 -3.234375 C 5.96875 -3.722656 5.867188 -4.144531 5.671875 -4.5 C 5.472656 -4.863281 5.207031 -5.140625 4.875 -5.328125 C 4.539062 -5.523438 4.175781 -5.625 3.78125 -5.625 C 3.375 -5.625 3.003906 -5.53125 2.671875 -5.34375 C 2.347656 -5.15625 2.085938 -4.878906 1.890625 -4.515625 C 1.691406 -4.160156 1.59375 -3.738281 1.59375 -3.25 C 1.59375 -2.75 1.691406 -2.316406 1.890625 -1.953125 C 2.085938 -1.585938 2.347656 -1.304688 2.671875 -1.109375 C 3.003906 -0.921875 3.375 -0.828125 3.78125 -0.828125 C 4.175781 -0.828125 4.539062 -0.921875 4.875 -1.109375 C 5.207031 -1.304688 5.472656 -1.585938 5.671875 -1.953125 C 5.867188 -2.316406 5.96875 -2.742188 5.96875 -3.234375 Z M 5.96875 -3.234375 "/></g></g></g><g fill="#ffffff" fill-opacity="1"><g transform="translate(177.855488, 91.182594)"><g><path d="M 1.984375 -8.703125 L 1.984375 0 L 0.90625 0 L 0.90625 -8.703125 Z M 1.984375 -8.703125 "/></g></g></g><g fill="#ffffff" fill-opacity="1"><g transform="translate(180.749028, 91.182594)"><g/></g></g><g fill="#ffffff" fill-opacity="1"><g transform="translate(183.889581, 91.182594)"><g><path d="M 6.390625 -5.796875 C 6.390625 -5.117188 6.15625 -4.550781 5.6875 -4.09375 C 5.21875 -3.644531 4.503906 -3.421875 3.546875 -3.421875 L 1.984375 -3.421875 L 1.984375 0 L 0.90625 0 L 0.90625 -8.203125 L 3.546875 -8.203125 C 4.472656 -8.203125 5.175781 -7.976562 5.65625 -7.53125 C 6.144531 -7.082031 6.390625 -6.503906 6.390625 -5.796875 Z M 3.546875 -4.3125 C 4.148438 -4.3125 4.59375 -4.4375 4.875 -4.6875 C 5.15625 -4.945312 5.296875 -5.316406 5.296875 -5.796875 C 5.296875 -6.804688 4.710938 -7.3125 3.546875 -7.3125 L 1.984375 -7.3125 L 1.984375 -4.3125 Z M 3.546875 -4.3125 "/></g></g></g><g fill="#ffffff" fill-opacity="1"><g transform="translate(190.699991, 91.182594)"><g><path d="M 1.984375 -8.703125 L 1.984375 0 L 0.90625 0 L 0.90625 -8.703125 Z M 1.984375 -8.703125 "/></g></g></g><g fill="#ffffff" fill-opacity="1"><g transform="translate(193.593532, 91.182594)"><g><path d="M 0.5 -3.25 C 0.5 -3.90625 0.632812 -4.484375 0.90625 -4.984375 C 1.175781 -5.484375 1.539062 -5.867188 2 -6.140625 C 2.46875 -6.410156 2.988281 -6.546875 3.5625 -6.546875 C 4.125 -6.546875 4.613281 -6.425781 5.03125 -6.1875 C 5.445312 -5.945312 5.757812 -5.640625 5.96875 -5.265625 L 5.96875 -6.453125 L 7.046875 -6.453125 L 7.046875 0 L 5.96875 0 L 5.96875 -1.203125 C 5.75 -0.828125 5.429688 -0.515625 5.015625 -0.265625 C 4.597656 -0.015625 4.109375 0.109375 3.546875 0.109375 C 2.972656 0.109375 2.457031 -0.03125 2 -0.3125 C 1.539062 -0.59375 1.175781 -0.988281 0.90625 -1.5 C 0.632812 -2.007812 0.5 -2.59375 0.5 -3.25 Z M 5.96875 -3.234375 C 5.96875 -3.722656 5.867188 -4.144531 5.671875 -4.5 C 5.472656 -4.863281 5.207031 -5.140625 4.875 -5.328125 C 4.539062 -5.523438 4.175781 -5.625 3.78125 -5.625 C 3.375 -5.625 3.003906 -5.53125 2.671875 -5.34375 C 2.347656 -5.15625 2.085938 -4.878906 1.890625 -4.515625 C 1.691406 -4.160156 1.59375 -3.738281 1.59375 -3.25 C 1.59375 -2.75 1.691406 -2.316406 1.890625 -1.953125 C 2.085938 -1.585938 2.347656 -1.304688 2.671875 -1.109375 C 3.003906 -0.921875 3.375 -0.828125 3.78125 -0.828125 C 4.175781 -0.828125 4.539062 -0.921875 4.875 -1.109375 C 5.207031 -1.304688 5.472656 -1.585938 5.671875 -1.953125 C 5.867188 -2.316406 5.96875 -2.742188 5.96875 -3.234375 Z M 5.96875 -3.234375 "/></g></g></g><g fill="#ffffff" fill-opacity="1"><g transform="translate(201.5449, 91.182594)"><g><path d="M 4.046875 -6.5625 C 4.828125 -6.5625 5.460938 -6.320312 5.953125 -5.84375 C 6.441406 -5.375 6.6875 -4.691406 6.6875 -3.796875 L 6.6875 0 L 5.625 0 L 5.625 -3.640625 C 5.625 -4.285156 5.460938 -4.78125 5.140625 -5.125 C 4.816406 -5.46875 4.378906 -5.640625 3.828125 -5.640625 C 3.265625 -5.640625 2.816406 -5.460938 2.484375 -5.109375 C 2.148438 -4.753906 1.984375 -4.238281 1.984375 -3.5625 L 1.984375 0 L 0.90625 0 L 0.90625 -6.453125 L 1.984375 -6.453125 L 1.984375 -5.53125 C 2.191406 -5.863281 2.476562 -6.117188 2.84375 -6.296875 C 3.207031 -6.472656 3.609375 -6.5625 4.046875 -6.5625 Z M 4.046875 -6.5625 "/></g></g></g><g fill="#ffffff" fill-opacity="1"><g transform="translate(209.072821, 91.182594)"><g><path d="M 2.21875 -5.5625 L 2.21875 -1.765625 C 2.21875 -1.453125 2.28125 -1.226562 2.40625 -1.09375 C 2.539062 -0.96875 2.773438 -0.90625 3.109375 -0.90625 L 3.890625 -0.90625 L 3.890625 0 L 2.921875 0 C 2.328125 0 1.878906 -0.132812 1.578125 -0.40625 C 1.285156 -0.6875 1.140625 -1.140625 1.140625 -1.765625 L 1.140625 -5.5625 L 0.3125 -5.5625 L 0.3125 -6.453125 L 1.140625 -6.453125 L 1.140625 -8.078125 L 2.21875 -8.078125 L 2.21875 -6.453125 L 3.890625 -6.453125 L 3.890625 -5.5625 Z M 2.21875 -5.5625 "/></g></g></g><g fill="#ffffff" fill-opacity="1"><g transform="translate(213.354331, 91.182594)"><g/></g></g><g fill="#ffffff" fill-opacity="1"><g transform="translate(216.494884, 91.182594)"><g><path d="M 0.5 -4.109375 C 0.5 -4.910156 0.679688 -5.628906 1.046875 -6.265625 C 1.410156 -6.898438 1.898438 -7.398438 2.515625 -7.765625 C 3.140625 -8.128906 3.832031 -8.3125 4.59375 -8.3125 C 5.488281 -8.3125 6.269531 -8.09375 6.9375 -7.65625 C 7.601562 -7.226562 8.09375 -6.617188 8.40625 -5.828125 L 7.125 -5.828125 C 6.894531 -6.316406 6.566406 -6.691406 6.140625 -6.953125 C 5.710938 -7.222656 5.195312 -7.359375 4.59375 -7.359375 C 4.019531 -7.359375 3.503906 -7.222656 3.046875 -6.953125 C 2.597656 -6.691406 2.242188 -6.316406 1.984375 -5.828125 C 1.722656 -5.335938 1.59375 -4.765625 1.59375 -4.109375 C 1.59375 -3.453125 1.722656 -2.878906 1.984375 -2.390625 C 2.242188 -1.898438 2.597656 -1.519531 3.046875 -1.25 C 3.503906 -0.988281 4.019531 -0.859375 4.59375 -0.859375 C 5.195312 -0.859375 5.710938 -0.988281 6.140625 -1.25 C 6.566406 -1.507812 6.894531 -1.890625 7.125 -2.390625 L 8.40625 -2.390625 C 8.09375 -1.609375 7.601562 -1 6.9375 -0.5625 C 6.269531 -0.132812 5.488281 0.078125 4.59375 0.078125 C 3.832031 0.078125 3.140625 -0.0976562 2.515625 -0.453125 C 1.898438 -0.816406 1.410156 -1.316406 1.046875 -1.953125 C 0.679688 -2.585938 0.5 -3.304688 0.5 -4.109375 Z M 0.5 -4.109375 "/></g></g></g><g fill="#ffffff" fill-opacity="1"><g transform="translate(225.57544, 91.182594)"><g><path d="M 0.5 -3.25 C 0.5 -3.90625 0.632812 -4.484375 0.90625 -4.984375 C 1.175781 -5.484375 1.539062 -5.867188 2 -6.140625 C 2.46875 -6.410156 2.988281 -6.546875 3.5625 -6.546875 C 4.125 -6.546875 4.613281 -6.425781 5.03125 -6.1875 C 5.445312 -5.945312 5.757812 -5.640625 5.96875 -5.265625 L 5.96875 -6.453125 L 7.046875 -6.453125 L 7.046875 0 L 5.96875 0 L 5.96875 -1.203125 C 5.75 -0.828125 5.429688 -0.515625 5.015625 -0.265625 C 4.597656 -0.015625 4.109375 0.109375 3.546875 0.109375 C 2.972656 0.109375 2.457031 -0.03125 2 -0.3125 C 1.539062 -0.59375 1.175781 -0.988281 0.90625 -1.5 C 0.632812 -2.007812 0.5 -2.59375 0.5 -3.25 Z M 5.96875 -3.234375 C 5.96875 -3.722656 5.867188 -4.144531 5.671875 -4.5 C 5.472656 -4.863281 5.207031 -5.140625 4.875 -5.328125 C 4.539062 -5.523438 4.175781 -5.625 3.78125 -5.625 C 3.375 -5.625 3.003906 -5.53125 2.671875 -5.34375 C 2.347656 -5.15625 2.085938 -4.878906 1.890625 -4.515625 C 1.691406 -4.160156 1.59375 -3.738281 1.59375 -3.25 C 1.59375 -2.75 1.691406 -2.316406 1.890625 -1.953125 C 2.085938 -1.585938 2.347656 -1.304688 2.671875 -1.109375 C 3.003906 -0.921875 3.375 -0.828125 3.78125 -0.828125 C 4.175781 -0.828125 4.539062 -0.921875 4.875 -1.109375 C 5.207031 -1.304688 5.472656 -1.585938 5.671875 -1.953125 C 5.867188 -2.316406 5.96875 -2.742188 5.96875 -3.234375 Z M 5.96875 -3.234375 "/></g></g></g><g fill="#ffffff" fill-opacity="1"><g transform="translate(233.526808, 91.182594)"><g><path d="M 1.984375 -5.40625 C 2.171875 -5.769531 2.4375 -6.050781 2.78125 -6.25 C 3.132812 -6.457031 3.5625 -6.5625 4.0625 -6.5625 L 4.0625 -5.453125 L 3.78125 -5.453125 C 2.582031 -5.453125 1.984375 -4.800781 1.984375 -3.5 L 1.984375 0 L 0.90625 0 L 0.90625 -6.453125 L 1.984375 -6.453125 Z M 1.984375 -5.40625 "/></g></g></g><g fill="#ffffff" fill-opacity="1"><g transform="translate(237.914177, 91.182594)"><g><path d="M 6.78125 -3.46875 C 6.78125 -3.269531 6.769531 -3.054688 6.75 -2.828125 L 1.59375 -2.828125 C 1.632812 -2.191406 1.851562 -1.691406 2.25 -1.328125 C 2.644531 -0.972656 3.125 -0.796875 3.6875 -0.796875 C 4.15625 -0.796875 4.539062 -0.90625 4.84375 -1.125 C 5.15625 -1.34375 5.375 -1.628906 5.5 -1.984375 L 6.65625 -1.984375 C 6.488281 -1.367188 6.144531 -0.863281 5.625 -0.46875 C 5.101562 -0.0820312 4.457031 0.109375 3.6875 0.109375 C 3.082031 0.109375 2.535156 -0.0234375 2.046875 -0.296875 C 1.566406 -0.578125 1.1875 -0.96875 0.90625 -1.46875 C 0.632812 -1.976562 0.5 -2.566406 0.5 -3.234375 C 0.5 -3.898438 0.632812 -4.484375 0.90625 -4.984375 C 1.175781 -5.484375 1.550781 -5.867188 2.03125 -6.140625 C 2.507812 -6.410156 3.0625 -6.546875 3.6875 -6.546875 C 4.300781 -6.546875 4.84375 -6.410156 5.3125 -6.140625 C 5.789062 -5.878906 6.15625 -5.515625 6.40625 -5.046875 C 6.65625 -4.585938 6.78125 -4.0625 6.78125 -3.46875 Z M 5.6875 -3.6875 C 5.6875 -4.101562 5.59375 -4.457031 5.40625 -4.75 C 5.226562 -5.039062 4.984375 -5.257812 4.671875 -5.40625 C 4.367188 -5.5625 4.023438 -5.640625 3.640625 -5.640625 C 3.097656 -5.640625 2.632812 -5.46875 2.25 -5.125 C 1.875 -4.78125 1.660156 -4.300781 1.609375 -3.6875 Z M 5.6875 -3.6875 "/></g></g></g><g fill="#ffffff" fill-opacity="1"><g transform="translate(245.206855, 91.182594)"><g/></g></g><g fill="#ffffff" fill-opacity="1"><g transform="translate(248.347408, 91.182594)"><g><path d="M 5.75 -1.828125 L 2.171875 -1.828125 L 1.515625 0 L 0.390625 0 L 3.359375 -8.15625 L 4.59375 -8.15625 L 7.546875 0 L 6.40625 0 Z M 5.453125 -2.6875 L 3.96875 -6.828125 L 2.484375 -2.6875 Z M 5.453125 -2.6875 "/></g></g></g><g fill="#ffffff" fill-opacity="1"><g transform="translate(256.27525, 91.182594)"><g><path d="M 3.1875 0.109375 C 2.695312 0.109375 2.253906 0.0234375 1.859375 -0.140625 C 1.460938 -0.316406 1.148438 -0.554688 0.921875 -0.859375 C 0.703125 -1.160156 0.578125 -1.503906 0.546875 -1.890625 L 1.65625 -1.890625 C 1.6875 -1.566406 1.835938 -1.300781 2.109375 -1.09375 C 2.378906 -0.894531 2.734375 -0.796875 3.171875 -0.796875 C 3.578125 -0.796875 3.898438 -0.882812 4.140625 -1.0625 C 4.378906 -1.25 4.5 -1.476562 4.5 -1.75 C 4.5 -2.03125 4.367188 -2.238281 4.109375 -2.375 C 3.859375 -2.519531 3.472656 -2.65625 2.953125 -2.78125 C 2.472656 -2.914062 2.082031 -3.046875 1.78125 -3.171875 C 1.476562 -3.296875 1.21875 -3.484375 1 -3.734375 C 0.789062 -3.992188 0.6875 -4.332031 0.6875 -4.75 C 0.6875 -5.082031 0.78125 -5.382812 0.96875 -5.65625 C 1.164062 -5.9375 1.445312 -6.15625 1.8125 -6.3125 C 2.175781 -6.46875 2.585938 -6.546875 3.046875 -6.546875 C 3.765625 -6.546875 4.34375 -6.363281 4.78125 -6 C 5.21875 -5.644531 5.453125 -5.15625 5.484375 -4.53125 L 4.40625 -4.53125 C 4.382812 -4.863281 4.25 -5.128906 4 -5.328125 C 3.757812 -5.535156 3.429688 -5.640625 3.015625 -5.640625 C 2.628906 -5.640625 2.320312 -5.554688 2.09375 -5.390625 C 1.863281 -5.234375 1.75 -5.019531 1.75 -4.75 C 1.75 -4.539062 1.816406 -4.367188 1.953125 -4.234375 C 2.097656 -4.097656 2.269531 -3.988281 2.46875 -3.90625 C 2.675781 -3.820312 2.96875 -3.726562 3.34375 -3.625 C 3.800781 -3.5 4.175781 -3.375 4.46875 -3.25 C 4.757812 -3.132812 5.007812 -2.953125 5.21875 -2.703125 C 5.425781 -2.460938 5.535156 -2.144531 5.546875 -1.75 C 5.546875 -1.394531 5.445312 -1.078125 5.25 -0.796875 C 5.050781 -0.515625 4.769531 -0.289062 4.40625 -0.125 C 4.050781 0.03125 3.644531 0.109375 3.1875 0.109375 Z M 3.1875 0.109375 "/></g></g></g><g fill="#ffffff" fill-opacity="1"><g transform="translate(262.415215, 91.182594)"><g><path d="M 3.1875 0.109375 C 2.695312 0.109375 2.253906 0.0234375 1.859375 -0.140625 C 1.460938 -0.316406 1.148438 -0.554688 0.921875 -0.859375 C 0.703125 -1.160156 0.578125 -1.503906 0.546875 -1.890625 L 1.65625 -1.890625 C 1.6875 -1.566406 1.835938 -1.300781 2.109375 -1.09375 C 2.378906 -0.894531 2.734375 -0.796875 3.171875 -0.796875 C 3.578125 -0.796875 3.898438 -0.882812 4.140625 -1.0625 C 4.378906 -1.25 4.5 -1.476562 4.5 -1.75 C 4.5 -2.03125 4.367188 -2.238281 4.109375 -2.375 C 3.859375 -2.519531 3.472656 -2.65625 2.953125 -2.78125 C 2.472656 -2.914062 2.082031 -3.046875 1.78125 -3.171875 C 1.476562 -3.296875 1.21875 -3.484375 1 -3.734375 C 0.789062 -3.992188 0.6875 -4.332031 0.6875 -4.75 C 0.6875 -5.082031 0.78125 -5.382812 0.96875 -5.65625 C 1.164062 -5.9375 1.445312 -6.15625 1.8125 -6.3125 C 2.175781 -6.46875 2.585938 -6.546875 3.046875 -6.546875 C 3.765625 -6.546875 4.34375 -6.363281 4.78125 -6 C 5.21875 -5.644531 5.453125 -5.15625 5.484375 -4.53125 L 4.40625 -4.53125 C 4.382812 -4.863281 4.25 -5.128906 4 -5.328125 C 3.757812 -5.535156 3.429688 -5.640625 3.015625 -5.640625 C 2.628906 -5.640625 2.320312 -5.554688 2.09375 -5.390625 C 1.863281 -5.234375 1.75 -5.019531 1.75 -4.75 C 1.75 -4.539062 1.816406 -4.367188 1.953125 -4.234375 C 2.097656 -4.097656 2.269531 -3.988281 2.46875 -3.90625 C 2.675781 -3.820312 2.96875 -3.726562 3.34375 -3.625 C 3.800781 -3.5 4.175781 -3.375 4.46875 -3.25 C 4.757812 -3.132812 5.007812 -2.953125 5.21875 -2.703125 C 5.425781 -2.460938 5.535156 -2.144531 5.546875 -1.75 C 5.546875 -1.394531 5.445312 -1.078125 5.25 -0.796875 C 5.050781 -0.515625 4.769531 -0.289062 4.40625 -0.125 C 4.050781 0.03125 3.644531 0.109375 3.1875 0.109375 Z M 3.1875 0.109375 "/></g></g></g><g fill="#ffffff" fill-opacity="1"><g transform="translate(268.55518, 91.182594)"><g><path d="M 1.453125 -7.5 C 1.253906 -7.5 1.082031 -7.566406 0.9375 -7.703125 C 0.800781 -7.847656 0.734375 -8.019531 0.734375 -8.21875 C 0.734375 -8.425781 0.800781 -8.597656 0.9375 -8.734375 C 1.082031 -8.878906 1.253906 -8.953125 1.453125 -8.953125 C 1.648438 -8.953125 1.816406 -8.878906 1.953125 -8.734375 C 2.097656 -8.597656 2.171875 -8.425781 2.171875 -8.21875 C 2.171875 -8.019531 2.097656 -7.847656 1.953125 -7.703125 C 1.816406 -7.566406 1.648438 -7.5 1.453125 -7.5 Z M 1.984375 -6.453125 L 1.984375 0 L 0.90625 0 L 0.90625 -6.453125 Z M 1.984375 -6.453125 "/></g></g></g><g fill="#ffffff" fill-opacity="1"><g transform="translate(271.44872, 91.182594)"><g><path d="M 3.1875 0.109375 C 2.695312 0.109375 2.253906 0.0234375 1.859375 -0.140625 C 1.460938 -0.316406 1.148438 -0.554688 0.921875 -0.859375 C 0.703125 -1.160156 0.578125 -1.503906 0.546875 -1.890625 L 1.65625 -1.890625 C 1.6875 -1.566406 1.835938 -1.300781 2.109375 -1.09375 C 2.378906 -0.894531 2.734375 -0.796875 3.171875 -0.796875 C 3.578125 -0.796875 3.898438 -0.882812 4.140625 -1.0625 C 4.378906 -1.25 4.5 -1.476562 4.5 -1.75 C 4.5 -2.03125 4.367188 -2.238281 4.109375 -2.375 C 3.859375 -2.519531 3.472656 -2.65625 2.953125 -2.78125 C 2.472656 -2.914062 2.082031 -3.046875 1.78125 -3.171875 C 1.476562 -3.296875 1.21875 -3.484375 1 -3.734375 C 0.789062 -3.992188 0.6875 -4.332031 0.6875 -4.75 C 0.6875 -5.082031 0.78125 -5.382812 0.96875 -5.65625 C 1.164062 -5.9375 1.445312 -6.15625 1.8125 -6.3125 C 2.175781 -6.46875 2.585938 -6.546875 3.046875 -6.546875 C 3.765625 -6.546875 4.34375 -6.363281 4.78125 -6 C 5.21875 -5.644531 5.453125 -5.15625 5.484375 -4.53125 L 4.40625 -4.53125 C 4.382812 -4.863281 4.25 -5.128906 4 -5.328125 C 3.757812 -5.535156 3.429688 -5.640625 3.015625 -5.640625 C 2.628906 -5.640625 2.320312 -5.554688 2.09375 -5.390625 C 1.863281 -5.234375 1.75 -5.019531 1.75 -4.75 C 1.75 -4.539062 1.816406 -4.367188 1.953125 -4.234375 C 2.097656 -4.097656 2.269531 -3.988281 2.46875 -3.90625 C 2.675781 -3.820312 2.96875 -3.726562 3.34375 -3.625 C 3.800781 -3.5 4.175781 -3.375 4.46875 -3.25 C 4.757812 -3.132812 5.007812 -2.953125 5.21875 -2.703125 C 5.425781 -2.460938 5.535156 -2.144531 5.546875 -1.75 C 5.546875 -1.394531 5.445312 -1.078125 5.25 -0.796875 C 5.050781 -0.515625 4.769531 -0.289062 4.40625 -0.125 C 4.050781 0.03125 3.644531 0.109375 3.1875 0.109375 Z M 3.1875 0.109375 "/></g></g></g><g fill="#ffffff" fill-opacity="1"><g transform="translate(277.588685, 91.182594)"><g><path d="M 2.21875 -5.5625 L 2.21875 -1.765625 C 2.21875 -1.453125 2.28125 -1.226562 2.40625 -1.09375 C 2.539062 -0.96875 2.773438 -0.90625 3.109375 -0.90625 L 3.890625 -0.90625 L 3.890625 0 L 2.921875 0 C 2.328125 0 1.878906 -0.132812 1.578125 -0.40625 C 1.285156 -0.6875 1.140625 -1.140625 1.140625 -1.765625 L 1.140625 -5.5625 L 0.3125 -5.5625 L 0.3125 -6.453125 L 1.140625 -6.453125 L 1.140625 -8.078125 L 2.21875 -8.078125 L 2.21875 -6.453125 L 3.890625 -6.453125 L 3.890625 -5.5625 Z M 2.21875 -5.5625 "/></g></g></g><g fill="#ffffff" fill-opacity="1"><g transform="translate(281.870195, 91.182594)"><g><path d="M 0.5 -3.25 C 0.5 -3.90625 0.632812 -4.484375 0.90625 -4.984375 C 1.175781 -5.484375 1.539062 -5.867188 2 -6.140625 C 2.46875 -6.410156 2.988281 -6.546875 3.5625 -6.546875 C 4.125 -6.546875 4.613281 -6.425781 5.03125 -6.1875 C 5.445312 -5.945312 5.757812 -5.640625 5.96875 -5.265625 L 5.96875 -6.453125 L 7.046875 -6.453125 L 7.046875 0 L 5.96875 0 L 5.96875 -1.203125 C 5.75 -0.828125 5.429688 -0.515625 5.015625 -0.265625 C 4.597656 -0.015625 4.109375 0.109375 3.546875 0.109375 C 2.972656 0.109375 2.457031 -0.03125 2 -0.3125 C 1.539062 -0.59375 1.175781 -0.988281 0.90625 -1.5 C 0.632812 -2.007812 0.5 -2.59375 0.5 -3.25 Z M 5.96875 -3.234375 C 5.96875 -3.722656 5.867188 -4.144531 5.671875 -4.5 C 5.472656 -4.863281 5.207031 -5.140625 4.875 -5.328125 C 4.539062 -5.523438 4.175781 -5.625 3.78125 -5.625 C 3.375 -5.625 3.003906 -5.53125 2.671875 -5.34375 C 2.347656 -5.15625 2.085938 -4.878906 1.890625 -4.515625 C 1.691406 -4.160156 1.59375 -3.738281 1.59375 -3.25 C 1.59375 -2.75 1.691406 -2.316406 1.890625 -1.953125 C 2.085938 -1.585938 2.347656 -1.304688 2.671875 -1.109375 C 3.003906 -0.921875 3.375 -0.828125 3.78125 -0.828125 C 4.175781 -0.828125 4.539062 -0.921875 4.875 -1.109375 C 5.207031 -1.304688 5.472656 -1.585938 5.671875 -1.953125 C 5.867188 -2.316406 5.96875 -2.742188 5.96875 -3.234375 Z M 5.96875 -3.234375 "/></g></g></g><g fill="#ffffff" fill-opacity="1"><g transform="translate(289.821563, 91.182594)"><g><path d="M 4.046875 -6.5625 C 4.828125 -6.5625 5.460938 -6.320312 5.953125 -5.84375 C 6.441406 -5.375 6.6875 -4.691406 6.6875 -3.796875 L 6.6875 0 L 5.625 0 L 5.625 -3.640625 C 5.625 -4.285156 5.460938 -4.78125 5.140625 -5.125 C 4.816406 -5.46875 4.378906 -5.640625 3.828125 -5.640625 C 3.265625 -5.640625 2.816406 -5.460938 2.484375 -5.109375 C 2.148438 -4.753906 1.984375 -4.238281 1.984375 -3.5625 L 1.984375 0 L 0.90625 0 L 0.90625 -6.453125 L 1.984375 -6.453125 L 1.984375 -5.53125 C 2.191406 -5.863281 2.476562 -6.117188 2.84375 -6.296875 C 3.207031 -6.472656 3.609375 -6.5625 4.046875 -6.5625 Z M 4.046875 -6.5625 "/></g></g></g><g fill="#ffffff" fill-opacity="1"><g transform="translate(297.349484, 91.182594)"><g><path d="M 2.21875 -5.5625 L 2.21875 -1.765625 C 2.21875 -1.453125 2.28125 -1.226562 2.40625 -1.09375 C 2.539062 -0.96875 2.773438 -0.90625 3.109375 -0.90625 L 3.890625 -0.90625 L 3.890625 0 L 2.921875 0 C 2.328125 0 1.878906 -0.132812 1.578125 -0.40625 C 1.285156 -0.6875 1.140625 -1.140625 1.140625 -1.765625 L 1.140625 -5.5625 L 0.3125 -5.5625 L 0.3125 -6.453125 L 1.140625 -6.453125 L 1.140625 -8.078125 L 2.21875 -8.078125 L 2.21875 -6.453125 L 3.890625 -6.453125 L 3.890625 -5.5625 Z M 2.21875 -5.5625 "/></g></g></g><g fill="#ffffff" fill-opacity="1"><g transform="translate(301.630994, 91.182594)"><g><path d="M 2.296875 -8.203125 L 2.171875 -2.3125 L 1.265625 -2.3125 L 1.140625 -8.203125 Z M 1.765625 0.078125 C 1.554688 0.078125 1.378906 0.00390625 1.234375 -0.140625 C 1.097656 -0.285156 1.03125 -0.457031 1.03125 -0.65625 C 1.03125 -0.863281 1.097656 -1.035156 1.234375 -1.171875 C 1.378906 -1.316406 1.554688 -1.390625 1.765625 -1.390625 C 1.960938 -1.390625 2.128906 -1.316406 2.265625 -1.171875 C 2.398438 -1.035156 2.46875 -0.863281 2.46875 -0.65625 C 2.46875 -0.457031 2.398438 -0.285156 2.265625 -0.140625 C 2.128906 0.00390625 1.960938 0.078125 1.765625 0.078125 Z M 1.765625 0.078125 "/></g></g></g></svg>