<svg xmlns="http://www.w3.org/2000/svg" xmlns:xlink="http://www.w3.org/1999/xlink" width="329" zoomAndPan="magnify" viewBox="0 0 246.75 251.999989" height="336" preserveAspectRatio="xMidYMid meet" version="1.0"><defs><g/><clipPath id="15470810c8"><path d="M 37.898438 0.128906 L 208.269531 0.128906 L 208.269531 170.496094 L 37.898438 170.496094 Z M 37.898438 0.128906 " clip-rule="nonzero"/></clipPath><clipPath id="a434ffbba6"><path d="M 123.085938 170.496094 C 170.132812 170.496094 208.269531 132.359375 208.269531 85.3125 C 208.269531 38.265625 170.132812 0.125 123.085938 0.125 C 76.039062 0.125 37.898438 38.265625 37.898438 85.3125 C 37.898438 132.359375 76.039062 170.496094 123.085938 170.496094 Z M 123.085938 170.496094 " clip-rule="nonzero"/></clipPath><clipPath id="04ca653854"><path d="M 46.230469 8.457031 L 208.261719 8.457031 L 208.261719 170.492188 L 46.230469 170.492188 Z M 46.230469 8.457031 " clip-rule="nonzero"/></clipPath><clipPath id="14a77f9808"><path d="M 127.246094 170.492188 C 171.992188 170.492188 208.261719 134.21875 208.261719 89.472656 C 208.261719 44.730469 171.992188 8.457031 127.246094 8.457031 C 82.503906 8.457031 46.230469 44.730469 46.230469 89.472656 C 46.230469 134.21875 82.503906 170.492188 127.246094 170.492188 Z M 127.246094 170.492188 " clip-rule="nonzero"/></clipPath><clipPath id="42d0d74d50"><path d="M 56.808594 19.035156 L 199.980469 19.035156 L 199.980469 162.207031 L 56.808594 162.207031 Z M 56.808594 19.035156 " clip-rule="nonzero"/></clipPath><clipPath id="5af9bb416b"><path d="M 128.394531 162.207031 C 167.929688 162.207031 199.980469 130.15625 199.980469 90.621094 C 199.980469 51.085938 167.929688 19.035156 128.394531 19.035156 C 88.859375 19.035156 56.808594 51.085938 56.808594 90.621094 C 56.808594 130.15625 88.859375 162.207031 128.394531 162.207031 Z M 128.394531 162.207031 " clip-rule="nonzero"/></clipPath><clipPath id="cdf0ca6db5"><path d="M 56.804688 19.03125 L 192.964844 19.03125 L 192.964844 155.191406 L 56.804688 155.191406 Z M 56.804688 19.03125 " clip-rule="nonzero"/></clipPath><clipPath id="8d904d7955"><path d="M 124.886719 155.191406 C 162.484375 155.191406 192.964844 124.710938 192.964844 87.113281 C 192.964844 49.511719 162.484375 19.03125 124.886719 19.03125 C 87.285156 19.03125 56.804688 49.511719 56.804688 87.113281 C 56.804688 124.710938 87.285156 155.191406 124.886719 155.191406 Z M 124.886719 155.191406 " clip-rule="nonzero"/></clipPath><clipPath id="7692692f8c"><path d="M 72.535156 38.253906 L 171 38.253906 L 171 155.886719 L 72.535156 155.886719 Z M 72.535156 38.253906 " clip-rule="nonzero"/></clipPath></defs><g clip-path="url(#15470810c8)"><g clip-path="url(#a434ffbba6)"><path fill="#ffffff" d="M 208.269531 170.496094 L 37.898438 170.496094 L 37.898438 0.125 L 208.269531 0.125 Z M 208.269531 170.496094 " fill-opacity="1" fill-rule="nonzero"/></g></g><g clip-path="url(#04ca653854)"><g clip-path="url(#14a77f9808)"><path fill="#3e6606" d="M 208.261719 170.492188 L 46.230469 170.492188 L 46.230469 8.457031 L 208.261719 8.457031 Z M 208.261719 170.492188 " fill-opacity="1" fill-rule="nonzero"/></g></g><g clip-path="url(#42d0d74d50)"><g clip-path="url(#5af9bb416b)"><path fill="#ffffff" d="M 199.980469 162.207031 L 56.808594 162.207031 L 56.808594 19.035156 L 199.980469 19.035156 Z M 199.980469 162.207031 " fill-opacity="1" fill-rule="nonzero"/></g></g><g clip-path="url(#cdf0ca6db5)"><g clip-path="url(#8d904d7955)"><path fill="#3e6606" d="M 192.964844 155.191406 L 56.804688 155.191406 L 56.804688 19.03125 L 192.964844 19.03125 Z M 192.964844 155.191406 " fill-opacity="1" fill-rule="nonzero"/></g></g><g clip-path="url(#7692692f8c)"><path fill="#ffffff" d="M 126.628906 127.453125 C 125.480469 128.945312 125.847656 129.753906 127.699219 129.882812 C 140.054688 129.597656 151.703125 124.058594 159.722656 114.65625 C 167.742188 105.253906 171.347656 92.84375 169.648438 80.59375 C 156.773438 97.3125 126.054688 98.984375 122.605469 120.0625 C 121.667969 105.019531 121.195312 89.972656 122.710938 74.980469 C 134.28125 58.996094 143.605469 50.871094 162.023438 44.734375 C 140.5 41.46875 127.152344 49.800781 122.007812 69.652344 C 123.46875 53.507812 116.597656 43.453125 100.746094 38.253906 C 112.261719 46.875 115.738281 57.347656 119.941406 71.324219 C 118.84375 80.386719 118.21875 89.527344 117.90625 98.644531 C 116.363281 90.886719 112.082031 83.78125 105.890625 78.453125 C 97.0625 70.90625 83.765625 67.484375 72.5625 70.589844 C 89.90625 79.734375 79.640625 109.457031 114.589844 108.519531 C 110.929688 97.15625 103.355469 85.742188 91.707031 80.046875 C 102.050781 82.398438 110.589844 91.09375 115.34375 100.890625 C 118.609375 107.578125 117.75 115.359375 117.566406 122.726562 C 117.226562 136.804688 118.269531 146.835938 118.742188 160.914062 L 125.113281 160.835938 C 124.75 149.734375 119.785156 128.289062 126.523438 119.855469 C 132.351562 112.566406 142.015625 104.886719 152.644531 101.179688 C 144 106.480469 132.324219 117.894531 126.628906 127.453125 " fill-opacity="1" fill-rule="evenodd"/></g><g fill="#ffffff" fill-opacity="1"><g transform="translate(21.417506, 219.69354)"><g><path d="M 22.171875 -19.5 C 21.535156 -20.664062 20.65625 -21.554688 19.53125 -22.171875 C 18.414062 -22.785156 17.113281 -23.09375 15.625 -23.09375 C 13.96875 -23.09375 12.5 -22.71875 11.21875 -21.96875 C 9.945312 -21.226562 8.953125 -20.164062 8.234375 -18.78125 C 7.515625 -17.394531 7.15625 -15.796875 7.15625 -13.984375 C 7.15625 -12.117188 7.519531 -10.492188 8.25 -9.109375 C 8.976562 -7.722656 9.992188 -6.65625 11.296875 -5.90625 C 12.609375 -5.164062 14.128906 -4.796875 15.859375 -4.796875 C 17.992188 -4.796875 19.738281 -5.359375 21.09375 -6.484375 C 22.457031 -7.617188 23.347656 -9.203125 23.765625 -11.234375 L 14.1875 -11.234375 L 14.1875 -15.5 L 29.28125 -15.5 L 29.28125 -10.625 C 28.90625 -8.6875 28.101562 -6.890625 26.875 -5.234375 C 25.65625 -3.578125 24.078125 -2.25 22.140625 -1.25 C 20.210938 -0.257812 18.050781 0.234375 15.65625 0.234375 C 12.96875 0.234375 10.535156 -0.367188 8.359375 -1.578125 C 6.191406 -2.785156 4.488281 -4.46875 3.25 -6.625 C 2.007812 -8.789062 1.390625 -11.242188 1.390625 -13.984375 C 1.390625 -16.722656 2.007812 -19.175781 3.25 -21.34375 C 4.488281 -23.519531 6.191406 -25.210938 8.359375 -26.421875 C 10.535156 -27.640625 12.957031 -28.25 15.625 -28.25 C 18.769531 -28.25 21.5 -27.484375 23.8125 -25.953125 C 26.125 -24.421875 27.722656 -22.269531 28.609375 -19.5 Z M 22.171875 -19.5 "/></g></g></g><g fill="#ffffff" fill-opacity="1"><g transform="translate(52.103364, 219.69354)"><g><path d="M 8.34375 -18.703125 C 9.0625 -19.867188 10 -20.785156 11.15625 -21.453125 C 12.320312 -22.117188 13.648438 -22.453125 15.140625 -22.453125 L 15.140625 -16.578125 L 13.65625 -16.578125 C 11.90625 -16.578125 10.582031 -16.164062 9.6875 -15.34375 C 8.789062 -14.519531 8.34375 -13.082031 8.34375 -11.03125 L 8.34375 0 L 2.75 0 L 2.75 -22.140625 L 8.34375 -22.140625 Z M 8.34375 -18.703125 "/></g></g></g><g fill="#ffffff" fill-opacity="1"><g transform="translate(68.245402, 219.69354)"><g><path d="M 12.578125 0.359375 C 10.453125 0.359375 8.535156 -0.113281 6.828125 -1.0625 C 5.128906 -2.007812 3.789062 -3.347656 2.8125 -5.078125 C 1.84375 -6.804688 1.359375 -8.800781 1.359375 -11.0625 C 1.359375 -13.332031 1.859375 -15.332031 2.859375 -17.0625 C 3.859375 -18.789062 5.222656 -20.128906 6.953125 -21.078125 C 8.679688 -22.023438 10.613281 -22.5 12.75 -22.5 C 14.875 -22.5 16.800781 -22.023438 18.53125 -21.078125 C 20.269531 -20.128906 21.632812 -18.789062 22.625 -17.0625 C 23.625 -15.332031 24.125 -13.332031 24.125 -11.0625 C 24.125 -8.800781 23.613281 -6.804688 22.59375 -5.078125 C 21.570312 -3.347656 20.1875 -2.007812 18.4375 -1.0625 C 16.695312 -0.113281 14.742188 0.359375 12.578125 0.359375 Z M 12.578125 -4.515625 C 13.597656 -4.515625 14.550781 -4.757812 15.4375 -5.25 C 16.332031 -5.75 17.046875 -6.488281 17.578125 -7.46875 C 18.109375 -8.457031 18.375 -9.65625 18.375 -11.0625 C 18.375 -13.164062 17.820312 -14.785156 16.71875 -15.921875 C 15.613281 -17.054688 14.265625 -17.625 12.671875 -17.625 C 11.066406 -17.625 9.722656 -17.054688 8.640625 -15.921875 C 7.566406 -14.785156 7.03125 -13.164062 7.03125 -11.0625 C 7.03125 -8.957031 7.554688 -7.335938 8.609375 -6.203125 C 9.660156 -5.078125 10.984375 -4.515625 12.578125 -4.515625 Z M 12.578125 -4.515625 "/></g></g></g><g fill="#ffffff" fill-opacity="1"><g transform="translate(93.737038, 219.69354)"><g><path d="M 33.4375 -22.140625 L 26.96875 0 L 20.9375 0 L 16.90625 -15.46875 L 12.859375 0 L 6.796875 0 L 0.28125 -22.140625 L 5.953125 -22.140625 L 9.875 -5.28125 L 14.109375 -22.140625 L 20.015625 -22.140625 L 24.171875 -5.3125 L 28.09375 -22.140625 Z M 33.4375 -22.140625 "/></g></g></g><g fill="#ffffff" fill-opacity="1"><g transform="translate(127.459518, 219.69354)"><g/></g></g><g fill="#ffffff" fill-opacity="1"><g transform="translate(136.968942, 219.69354)"><g><path d="M 40.03125 -27.890625 L 32.25 0 L 25.65625 0 L 20.421875 -19.859375 L 14.9375 0 L 8.390625 0.046875 L 0.875 -27.890625 L 6.875 -27.890625 L 11.78125 -6.234375 L 17.453125 -27.890625 L 23.6875 -27.890625 L 29.046875 -6.359375 L 34 -27.890625 Z M 40.03125 -27.890625 "/></g></g></g><g fill="#ffffff" fill-opacity="1"><g transform="translate(177.883419, 219.69354)"><g><path d="M 23.328125 -11.546875 C 23.328125 -10.742188 23.273438 -10.023438 23.171875 -9.390625 L 6.984375 -9.390625 C 7.117188 -7.785156 7.675781 -6.53125 8.65625 -5.625 C 9.644531 -4.726562 10.863281 -4.28125 12.3125 -4.28125 C 14.382812 -4.28125 15.859375 -5.171875 16.734375 -6.953125 L 22.765625 -6.953125 C 22.128906 -4.816406 20.90625 -3.0625 19.09375 -1.6875 C 17.28125 -0.320312 15.054688 0.359375 12.421875 0.359375 C 10.296875 0.359375 8.382812 -0.113281 6.6875 -1.0625 C 5 -2.007812 3.679688 -3.347656 2.734375 -5.078125 C 1.785156 -6.804688 1.3125 -8.800781 1.3125 -11.0625 C 1.3125 -13.351562 1.773438 -15.363281 2.703125 -17.09375 C 3.640625 -18.832031 4.945312 -20.164062 6.625 -21.09375 C 8.3125 -22.03125 10.242188 -22.5 12.421875 -22.5 C 14.523438 -22.5 16.410156 -22.046875 18.078125 -21.140625 C 19.742188 -20.234375 21.035156 -18.945312 21.953125 -17.28125 C 22.867188 -15.613281 23.328125 -13.703125 23.328125 -11.546875 Z M 17.546875 -13.140625 C 17.515625 -14.578125 16.992188 -15.726562 15.984375 -16.59375 C 14.972656 -17.46875 13.734375 -17.90625 12.265625 -17.90625 C 10.878906 -17.90625 9.710938 -17.484375 8.765625 -16.640625 C 7.816406 -15.796875 7.238281 -14.628906 7.03125 -13.140625 Z M 17.546875 -13.140625 "/></g></g></g><g fill="#ffffff" fill-opacity="1"><g transform="translate(202.535988, 219.69354)"><g><path d="M 8.34375 -29.5625 L 8.34375 0 L 2.75 0 L 2.75 -29.5625 Z M 8.34375 -29.5625 "/></g></g></g><g fill="#ffffff" fill-opacity="1"><g transform="translate(213.64363, 219.69354)"><g><path d="M 8.34375 -29.5625 L 8.34375 0 L 2.75 0 L 2.75 -29.5625 Z M 8.34375 -29.5625 "/></g></g></g><g fill="#ffffff" fill-opacity="1"><g transform="translate(36.332081, 238.674282)"><g><path d="M 5.640625 -6.953125 L 3.375 -2.625 L 3.375 0 L 2.46875 0 L 2.46875 -2.625 L 0.1875 -6.953125 L 1.203125 -6.953125 L 2.921875 -3.4375 L 4.625 -6.953125 Z M 5.640625 -6.953125 "/></g></g></g><g fill="#ffffff" fill-opacity="1"><g transform="translate(42.163872, 238.674282)"><g><path d="M 3.15625 0.09375 C 2.644531 0.09375 2.179688 -0.0195312 1.765625 -0.25 C 1.347656 -0.488281 1.019531 -0.820312 0.78125 -1.25 C 0.539062 -1.675781 0.421875 -2.175781 0.421875 -2.75 C 0.421875 -3.300781 0.539062 -3.789062 0.78125 -4.21875 C 1.03125 -4.65625 1.363281 -4.988281 1.78125 -5.21875 C 2.207031 -5.445312 2.675781 -5.5625 3.1875 -5.5625 C 3.707031 -5.5625 4.175781 -5.445312 4.59375 -5.21875 C 5.019531 -4.988281 5.351562 -4.660156 5.59375 -4.234375 C 5.832031 -3.804688 5.953125 -3.3125 5.953125 -2.75 C 5.953125 -2.175781 5.828125 -1.675781 5.578125 -1.25 C 5.335938 -0.820312 5.003906 -0.488281 4.578125 -0.25 C 4.148438 -0.0195312 3.675781 0.09375 3.15625 0.09375 Z M 3.15625 -0.703125 C 3.476562 -0.703125 3.78125 -0.78125 4.0625 -0.9375 C 4.351562 -1.09375 4.585938 -1.320312 4.765625 -1.625 C 4.941406 -1.9375 5.03125 -2.3125 5.03125 -2.75 C 5.03125 -3.1875 4.941406 -3.554688 4.765625 -3.859375 C 4.597656 -4.171875 4.375 -4.398438 4.09375 -4.546875 C 3.8125 -4.691406 3.507812 -4.765625 3.1875 -4.765625 C 2.851562 -4.765625 2.546875 -4.691406 2.265625 -4.546875 C 1.992188 -4.398438 1.773438 -4.171875 1.609375 -3.859375 C 1.441406 -3.554688 1.359375 -3.1875 1.359375 -2.75 C 1.359375 -2.300781 1.4375 -1.921875 1.59375 -1.609375 C 1.757812 -1.304688 1.976562 -1.078125 2.25 -0.921875 C 2.53125 -0.773438 2.832031 -0.703125 3.15625 -0.703125 Z M 3.15625 -0.703125 "/></g></g></g><g fill="#ffffff" fill-opacity="1"><g transform="translate(48.554873, 238.674282)"><g><path d="M 5.625 -5.46875 L 5.625 0 L 4.71875 0 L 4.71875 -0.8125 C 4.539062 -0.53125 4.296875 -0.3125 3.984375 -0.15625 C 3.679688 0 3.34375 0.078125 2.96875 0.078125 C 2.539062 0.078125 2.15625 -0.0078125 1.8125 -0.1875 C 1.476562 -0.363281 1.210938 -0.625 1.015625 -0.96875 C 0.816406 -1.320312 0.71875 -1.753906 0.71875 -2.265625 L 0.71875 -5.46875 L 1.625 -5.46875 L 1.625 -2.390625 C 1.625 -1.847656 1.757812 -1.429688 2.03125 -1.140625 C 2.300781 -0.847656 2.671875 -0.703125 3.140625 -0.703125 C 3.628906 -0.703125 4.015625 -0.851562 4.296875 -1.15625 C 4.578125 -1.457031 4.71875 -1.894531 4.71875 -2.46875 L 4.71875 -5.46875 Z M 5.625 -5.46875 "/></g></g></g><g fill="#ffffff" fill-opacity="1"><g transform="translate(54.945874, 238.674282)"><g><path d="M 1.671875 -4.578125 C 1.835938 -4.890625 2.066406 -5.132812 2.359375 -5.3125 C 2.660156 -5.488281 3.019531 -5.578125 3.4375 -5.578125 L 3.4375 -4.625 L 3.203125 -4.625 C 2.179688 -4.625 1.671875 -4.070312 1.671875 -2.96875 L 1.671875 0 L 0.765625 0 L 0.765625 -5.46875 L 1.671875 -5.46875 Z M 1.671875 -4.578125 "/></g></g></g><g fill="#ffffff" fill-opacity="1"><g transform="translate(58.670631, 238.674282)"><g/></g></g><g fill="#ffffff" fill-opacity="1"><g transform="translate(61.336875, 238.674282)"><g><path d="M 5.421875 -4.921875 C 5.421875 -4.335938 5.222656 -3.851562 4.828125 -3.46875 C 4.429688 -3.09375 3.828125 -2.90625 3.015625 -2.90625 L 1.671875 -2.90625 L 1.671875 0 L 0.765625 0 L 0.765625 -6.953125 L 3.015625 -6.953125 C 3.796875 -6.953125 4.390625 -6.765625 4.796875 -6.390625 C 5.210938 -6.015625 5.421875 -5.523438 5.421875 -4.921875 Z M 3.015625 -3.65625 C 3.523438 -3.65625 3.898438 -3.765625 4.140625 -3.984375 C 4.378906 -4.203125 4.5 -4.515625 4.5 -4.921875 C 4.5 -5.773438 4.003906 -6.203125 3.015625 -6.203125 L 1.671875 -6.203125 L 1.671875 -3.65625 Z M 3.015625 -3.65625 "/></g></g></g><g fill="#ffffff" fill-opacity="1"><g transform="translate(67.118729, 238.674282)"><g><path d="M 5.765625 -2.953125 C 5.765625 -2.773438 5.753906 -2.585938 5.734375 -2.390625 L 1.359375 -2.390625 C 1.390625 -1.859375 1.570312 -1.4375 1.90625 -1.125 C 2.25 -0.820312 2.660156 -0.671875 3.140625 -0.671875 C 3.523438 -0.671875 3.847656 -0.765625 4.109375 -0.953125 C 4.378906 -1.140625 4.566406 -1.382812 4.671875 -1.6875 L 5.65625 -1.6875 C 5.507812 -1.164062 5.210938 -0.738281 4.765625 -0.40625 C 4.328125 -0.0703125 3.785156 0.09375 3.140625 0.09375 C 2.617188 0.09375 2.148438 -0.0195312 1.734375 -0.25 C 1.328125 -0.488281 1.003906 -0.820312 0.765625 -1.25 C 0.535156 -1.675781 0.421875 -2.175781 0.421875 -2.75 C 0.421875 -3.3125 0.535156 -3.804688 0.765625 -4.234375 C 0.992188 -4.660156 1.3125 -4.988281 1.71875 -5.21875 C 2.132812 -5.445312 2.609375 -5.5625 3.140625 -5.5625 C 3.648438 -5.5625 4.101562 -5.445312 4.5 -5.21875 C 4.90625 -4.988281 5.21875 -4.675781 5.4375 -4.28125 C 5.65625 -3.882812 5.765625 -3.441406 5.765625 -2.953125 Z M 4.828125 -3.140625 C 4.828125 -3.484375 4.75 -3.78125 4.59375 -4.03125 C 4.4375 -4.28125 4.226562 -4.46875 3.96875 -4.59375 C 3.707031 -4.726562 3.414062 -4.796875 3.09375 -4.796875 C 2.632812 -4.796875 2.242188 -4.644531 1.921875 -4.34375 C 1.597656 -4.050781 1.414062 -3.648438 1.375 -3.140625 Z M 4.828125 -3.140625 "/></g></g></g><g fill="#ffffff" fill-opacity="1"><g transform="translate(73.310015, 238.674282)"><g><path d="M 1.671875 -4.578125 C 1.835938 -4.890625 2.066406 -5.132812 2.359375 -5.3125 C 2.660156 -5.488281 3.019531 -5.578125 3.4375 -5.578125 L 3.4375 -4.625 L 3.203125 -4.625 C 2.179688 -4.625 1.671875 -4.070312 1.671875 -2.96875 L 1.671875 0 L 0.765625 0 L 0.765625 -5.46875 L 1.671875 -5.46875 Z M 1.671875 -4.578125 "/></g></g></g><g fill="#ffffff" fill-opacity="1"><g transform="translate(77.034772, 238.674282)"><g><path d="M 2.703125 0.09375 C 2.285156 0.09375 1.910156 0.0195312 1.578125 -0.125 C 1.242188 -0.269531 0.976562 -0.46875 0.78125 -0.71875 C 0.59375 -0.976562 0.488281 -1.273438 0.46875 -1.609375 L 1.40625 -1.609375 C 1.4375 -1.335938 1.566406 -1.113281 1.796875 -0.9375 C 2.023438 -0.757812 2.328125 -0.671875 2.703125 -0.671875 C 3.046875 -0.671875 3.316406 -0.75 3.515625 -0.90625 C 3.710938 -1.0625 3.8125 -1.253906 3.8125 -1.484375 C 3.8125 -1.722656 3.703125 -1.898438 3.484375 -2.015625 C 3.273438 -2.140625 2.945312 -2.253906 2.5 -2.359375 C 2.09375 -2.472656 1.757812 -2.582031 1.5 -2.6875 C 1.25 -2.800781 1.03125 -2.960938 0.84375 -3.171875 C 0.664062 -3.390625 0.578125 -3.675781 0.578125 -4.03125 C 0.578125 -4.3125 0.660156 -4.566406 0.828125 -4.796875 C 0.992188 -5.035156 1.226562 -5.222656 1.53125 -5.359375 C 1.84375 -5.492188 2.195312 -5.5625 2.59375 -5.5625 C 3.195312 -5.5625 3.679688 -5.40625 4.046875 -5.09375 C 4.421875 -4.789062 4.625 -4.375 4.65625 -3.84375 L 3.75 -3.84375 C 3.726562 -4.125 3.609375 -4.351562 3.390625 -4.53125 C 3.179688 -4.707031 2.90625 -4.796875 2.5625 -4.796875 C 2.226562 -4.796875 1.960938 -4.722656 1.765625 -4.578125 C 1.578125 -4.441406 1.484375 -4.257812 1.484375 -4.03125 C 1.484375 -3.851562 1.539062 -3.707031 1.65625 -3.59375 C 1.78125 -3.476562 1.925781 -3.382812 2.09375 -3.3125 C 2.269531 -3.238281 2.515625 -3.160156 2.828125 -3.078125 C 3.222656 -2.972656 3.539062 -2.867188 3.78125 -2.765625 C 4.03125 -2.660156 4.242188 -2.503906 4.421875 -2.296875 C 4.597656 -2.085938 4.691406 -1.816406 4.703125 -1.484375 C 4.703125 -1.179688 4.617188 -0.910156 4.453125 -0.671875 C 4.285156 -0.429688 4.050781 -0.242188 3.75 -0.109375 C 3.445312 0.0234375 3.097656 0.09375 2.703125 0.09375 Z M 2.703125 0.09375 "/></g></g></g><g fill="#ffffff" fill-opacity="1"><g transform="translate(82.247435, 238.674282)"><g><path d="M 3.15625 0.09375 C 2.644531 0.09375 2.179688 -0.0195312 1.765625 -0.25 C 1.347656 -0.488281 1.019531 -0.820312 0.78125 -1.25 C 0.539062 -1.675781 0.421875 -2.175781 0.421875 -2.75 C 0.421875 -3.300781 0.539062 -3.789062 0.78125 -4.21875 C 1.03125 -4.65625 1.363281 -4.988281 1.78125 -5.21875 C 2.207031 -5.445312 2.675781 -5.5625 3.1875 -5.5625 C 3.707031 -5.5625 4.175781 -5.445312 4.59375 -5.21875 C 5.019531 -4.988281 5.351562 -4.660156 5.59375 -4.234375 C 5.832031 -3.804688 5.953125 -3.3125 5.953125 -2.75 C 5.953125 -2.175781 5.828125 -1.675781 5.578125 -1.25 C 5.335938 -0.820312 5.003906 -0.488281 4.578125 -0.25 C 4.148438 -0.0195312 3.675781 0.09375 3.15625 0.09375 Z M 3.15625 -0.703125 C 3.476562 -0.703125 3.78125 -0.78125 4.0625 -0.9375 C 4.351562 -1.09375 4.585938 -1.320312 4.765625 -1.625 C 4.941406 -1.9375 5.03125 -2.3125 5.03125 -2.75 C 5.03125 -3.1875 4.941406 -3.554688 4.765625 -3.859375 C 4.597656 -4.171875 4.375 -4.398438 4.09375 -4.546875 C 3.8125 -4.691406 3.507812 -4.765625 3.1875 -4.765625 C 2.851562 -4.765625 2.546875 -4.691406 2.265625 -4.546875 C 1.992188 -4.398438 1.773438 -4.171875 1.609375 -3.859375 C 1.441406 -3.554688 1.359375 -3.1875 1.359375 -2.75 C 1.359375 -2.300781 1.4375 -1.921875 1.59375 -1.609375 C 1.757812 -1.304688 1.976562 -1.078125 2.25 -0.921875 C 2.53125 -0.773438 2.832031 -0.703125 3.15625 -0.703125 Z M 3.15625 -0.703125 "/></g></g></g><g fill="#ffffff" fill-opacity="1"><g transform="translate(88.638436, 238.674282)"><g><path d="M 3.4375 -5.578125 C 4.101562 -5.578125 4.640625 -5.375 5.046875 -4.96875 C 5.460938 -4.5625 5.671875 -3.976562 5.671875 -3.21875 L 5.671875 0 L 4.765625 0 L 4.765625 -3.09375 C 4.765625 -3.632812 4.628906 -4.050781 4.359375 -4.34375 C 4.085938 -4.632812 3.71875 -4.78125 3.25 -4.78125 C 2.769531 -4.78125 2.382812 -4.628906 2.09375 -4.328125 C 1.8125 -4.035156 1.671875 -3.601562 1.671875 -3.03125 L 1.671875 0 L 0.765625 0 L 0.765625 -5.46875 L 1.671875 -5.46875 L 1.671875 -4.6875 C 1.859375 -4.96875 2.101562 -5.1875 2.40625 -5.34375 C 2.71875 -5.5 3.0625 -5.578125 3.4375 -5.578125 Z M 3.4375 -5.578125 "/></g></g></g><g fill="#ffffff" fill-opacity="1"><g transform="translate(95.029437, 238.674282)"><g><path d="M 0.421875 -2.75 C 0.421875 -3.3125 0.535156 -3.800781 0.765625 -4.21875 C 0.992188 -4.644531 1.304688 -4.972656 1.703125 -5.203125 C 2.097656 -5.441406 2.539062 -5.5625 3.03125 -5.5625 C 3.507812 -5.5625 3.921875 -5.457031 4.265625 -5.25 C 4.617188 -5.039062 4.882812 -4.78125 5.0625 -4.46875 L 5.0625 -5.46875 L 5.984375 -5.46875 L 5.984375 0 L 5.0625 0 L 5.0625 -1.015625 C 4.882812 -0.703125 4.613281 -0.4375 4.25 -0.21875 C 3.894531 -0.0078125 3.484375 0.09375 3.015625 0.09375 C 2.523438 0.09375 2.082031 -0.0234375 1.6875 -0.265625 C 1.300781 -0.503906 0.992188 -0.835938 0.765625 -1.265625 C 0.535156 -1.703125 0.421875 -2.195312 0.421875 -2.75 Z M 5.0625 -2.75 C 5.0625 -3.15625 4.976562 -3.507812 4.8125 -3.8125 C 4.644531 -4.125 4.421875 -4.359375 4.140625 -4.515625 C 3.859375 -4.679688 3.546875 -4.765625 3.203125 -4.765625 C 2.867188 -4.765625 2.5625 -4.6875 2.28125 -4.53125 C 2 -4.375 1.773438 -4.140625 1.609375 -3.828125 C 1.441406 -3.523438 1.359375 -3.164062 1.359375 -2.75 C 1.359375 -2.332031 1.441406 -1.96875 1.609375 -1.65625 C 1.773438 -1.351562 2 -1.117188 2.28125 -0.953125 C 2.5625 -0.785156 2.867188 -0.703125 3.203125 -0.703125 C 3.546875 -0.703125 3.859375 -0.785156 4.140625 -0.953125 C 4.421875 -1.117188 4.644531 -1.351562 4.8125 -1.65625 C 4.976562 -1.96875 5.0625 -2.332031 5.0625 -2.75 Z M 5.0625 -2.75 "/></g></g></g><g fill="#ffffff" fill-opacity="1"><g transform="translate(101.779933, 238.674282)"><g><path d="M 1.671875 -7.390625 L 1.671875 0 L 0.765625 0 L 0.765625 -7.390625 Z M 1.671875 -7.390625 "/></g></g></g><g fill="#ffffff" fill-opacity="1"><g transform="translate(104.23647, 238.674282)"><g/></g></g><g fill="#ffffff" fill-opacity="1"><g transform="translate(106.902714, 238.674282)"><g><path d="M 5.421875 -4.921875 C 5.421875 -4.335938 5.222656 -3.851562 4.828125 -3.46875 C 4.429688 -3.09375 3.828125 -2.90625 3.015625 -2.90625 L 1.671875 -2.90625 L 1.671875 0 L 0.765625 0 L 0.765625 -6.953125 L 3.015625 -6.953125 C 3.796875 -6.953125 4.390625 -6.765625 4.796875 -6.390625 C 5.210938 -6.015625 5.421875 -5.523438 5.421875 -4.921875 Z M 3.015625 -3.65625 C 3.523438 -3.65625 3.898438 -3.765625 4.140625 -3.984375 C 4.378906 -4.203125 4.5 -4.515625 4.5 -4.921875 C 4.5 -5.773438 4.003906 -6.203125 3.015625 -6.203125 L 1.671875 -6.203125 L 1.671875 -3.65625 Z M 3.015625 -3.65625 "/></g></g></g><g fill="#ffffff" fill-opacity="1"><g transform="translate(112.684568, 238.674282)"><g><path d="M 1.671875 -7.390625 L 1.671875 0 L 0.765625 0 L 0.765625 -7.390625 Z M 1.671875 -7.390625 "/></g></g></g><g fill="#ffffff" fill-opacity="1"><g transform="translate(115.141105, 238.674282)"><g><path d="M 0.421875 -2.75 C 0.421875 -3.3125 0.535156 -3.800781 0.765625 -4.21875 C 0.992188 -4.644531 1.304688 -4.972656 1.703125 -5.203125 C 2.097656 -5.441406 2.539062 -5.5625 3.03125 -5.5625 C 3.507812 -5.5625 3.921875 -5.457031 4.265625 -5.25 C 4.617188 -5.039062 4.882812 -4.78125 5.0625 -4.46875 L 5.0625 -5.46875 L 5.984375 -5.46875 L 5.984375 0 L 5.0625 0 L 5.0625 -1.015625 C 4.882812 -0.703125 4.613281 -0.4375 4.25 -0.21875 C 3.894531 -0.0078125 3.484375 0.09375 3.015625 0.09375 C 2.523438 0.09375 2.082031 -0.0234375 1.6875 -0.265625 C 1.300781 -0.503906 0.992188 -0.835938 0.765625 -1.265625 C 0.535156 -1.703125 0.421875 -2.195312 0.421875 -2.75 Z M 5.0625 -2.75 C 5.0625 -3.15625 4.976562 -3.507812 4.8125 -3.8125 C 4.644531 -4.125 4.421875 -4.359375 4.140625 -4.515625 C 3.859375 -4.679688 3.546875 -4.765625 3.203125 -4.765625 C 2.867188 -4.765625 2.5625 -4.6875 2.28125 -4.53125 C 2 -4.375 1.773438 -4.140625 1.609375 -3.828125 C 1.441406 -3.523438 1.359375 -3.164062 1.359375 -2.75 C 1.359375 -2.332031 1.441406 -1.96875 1.609375 -1.65625 C 1.773438 -1.351562 2 -1.117188 2.28125 -0.953125 C 2.5625 -0.785156 2.867188 -0.703125 3.203125 -0.703125 C 3.546875 -0.703125 3.859375 -0.785156 4.140625 -0.953125 C 4.421875 -1.117188 4.644531 -1.351562 4.8125 -1.65625 C 4.976562 -1.96875 5.0625 -2.332031 5.0625 -2.75 Z M 5.0625 -2.75 "/></g></g></g><g fill="#ffffff" fill-opacity="1"><g transform="translate(121.891601, 238.674282)"><g><path d="M 3.4375 -5.578125 C 4.101562 -5.578125 4.640625 -5.375 5.046875 -4.96875 C 5.460938 -4.5625 5.671875 -3.976562 5.671875 -3.21875 L 5.671875 0 L 4.765625 0 L 4.765625 -3.09375 C 4.765625 -3.632812 4.628906 -4.050781 4.359375 -4.34375 C 4.085938 -4.632812 3.71875 -4.78125 3.25 -4.78125 C 2.769531 -4.78125 2.382812 -4.628906 2.09375 -4.328125 C 1.8125 -4.035156 1.671875 -3.601562 1.671875 -3.03125 L 1.671875 0 L 0.765625 0 L 0.765625 -5.46875 L 1.671875 -5.46875 L 1.671875 -4.6875 C 1.859375 -4.96875 2.101562 -5.1875 2.40625 -5.34375 C 2.71875 -5.5 3.0625 -5.578125 3.4375 -5.578125 Z M 3.4375 -5.578125 "/></g></g></g><g fill="#ffffff" fill-opacity="1"><g transform="translate(128.282602, 238.674282)"><g><path d="M 1.875 -4.71875 L 1.875 -1.5 C 1.875 -1.226562 1.929688 -1.035156 2.046875 -0.921875 C 2.160156 -0.816406 2.359375 -0.765625 2.640625 -0.765625 L 3.3125 -0.765625 L 3.3125 0 L 2.484375 0 C 1.984375 0 1.601562 -0.113281 1.34375 -0.34375 C 1.09375 -0.582031 0.96875 -0.96875 0.96875 -1.5 L 0.96875 -4.71875 L 0.265625 -4.71875 L 0.265625 -5.46875 L 0.96875 -5.46875 L 0.96875 -6.84375 L 1.875 -6.84375 L 1.875 -5.46875 L 3.3125 -5.46875 L 3.3125 -4.71875 Z M 1.875 -4.71875 "/></g></g></g><g fill="#ffffff" fill-opacity="1"><g transform="translate(131.917488, 238.674282)"><g/></g></g><g fill="#ffffff" fill-opacity="1"><g transform="translate(134.583732, 238.674282)"><g><path d="M 0.421875 -3.484375 C 0.421875 -4.160156 0.570312 -4.769531 0.875 -5.3125 C 1.1875 -5.851562 1.609375 -6.273438 2.140625 -6.578125 C 2.671875 -6.890625 3.257812 -7.046875 3.90625 -7.046875 C 4.664062 -7.046875 5.328125 -6.863281 5.890625 -6.5 C 6.453125 -6.132812 6.863281 -5.613281 7.125 -4.9375 L 6.046875 -4.9375 C 5.847656 -5.363281 5.566406 -5.6875 5.203125 -5.90625 C 4.835938 -6.132812 4.40625 -6.25 3.90625 -6.25 C 3.414062 -6.25 2.976562 -6.132812 2.59375 -5.90625 C 2.207031 -5.6875 1.90625 -5.367188 1.6875 -4.953125 C 1.46875 -4.535156 1.359375 -4.046875 1.359375 -3.484375 C 1.359375 -2.929688 1.46875 -2.445312 1.6875 -2.03125 C 1.90625 -1.613281 2.207031 -1.289062 2.59375 -1.0625 C 2.976562 -0.84375 3.414062 -0.734375 3.90625 -0.734375 C 4.40625 -0.734375 4.835938 -0.84375 5.203125 -1.0625 C 5.566406 -1.28125 5.847656 -1.601562 6.046875 -2.03125 L 7.125 -2.03125 C 6.863281 -1.363281 6.453125 -0.847656 5.890625 -0.484375 C 5.328125 -0.117188 4.664062 0.0625 3.90625 0.0625 C 3.257812 0.0625 2.671875 -0.0859375 2.140625 -0.390625 C 1.609375 -0.691406 1.1875 -1.113281 0.875 -1.65625 C 0.570312 -2.195312 0.421875 -2.804688 0.421875 -3.484375 Z M 0.421875 -3.484375 "/></g></g></g><g fill="#ffffff" fill-opacity="1"><g transform="translate(142.292878, 238.674282)"><g><path d="M 0.421875 -2.75 C 0.421875 -3.3125 0.535156 -3.800781 0.765625 -4.21875 C 0.992188 -4.644531 1.304688 -4.972656 1.703125 -5.203125 C 2.097656 -5.441406 2.539062 -5.5625 3.03125 -5.5625 C 3.507812 -5.5625 3.921875 -5.457031 4.265625 -5.25 C 4.617188 -5.039062 4.882812 -4.78125 5.0625 -4.46875 L 5.0625 -5.46875 L 5.984375 -5.46875 L 5.984375 0 L 5.0625 0 L 5.0625 -1.015625 C 4.882812 -0.703125 4.613281 -0.4375 4.25 -0.21875 C 3.894531 -0.0078125 3.484375 0.09375 3.015625 0.09375 C 2.523438 0.09375 2.082031 -0.0234375 1.6875 -0.265625 C 1.300781 -0.503906 0.992188 -0.835938 0.765625 -1.265625 C 0.535156 -1.703125 0.421875 -2.195312 0.421875 -2.75 Z M 5.0625 -2.75 C 5.0625 -3.15625 4.976562 -3.507812 4.8125 -3.8125 C 4.644531 -4.125 4.421875 -4.359375 4.140625 -4.515625 C 3.859375 -4.679688 3.546875 -4.765625 3.203125 -4.765625 C 2.867188 -4.765625 2.5625 -4.6875 2.28125 -4.53125 C 2 -4.375 1.773438 -4.140625 1.609375 -3.828125 C 1.441406 -3.523438 1.359375 -3.164062 1.359375 -2.75 C 1.359375 -2.332031 1.441406 -1.96875 1.609375 -1.65625 C 1.773438 -1.351562 2 -1.117188 2.28125 -0.953125 C 2.5625 -0.785156 2.867188 -0.703125 3.203125 -0.703125 C 3.546875 -0.703125 3.859375 -0.785156 4.140625 -0.953125 C 4.421875 -1.117188 4.644531 -1.351562 4.8125 -1.65625 C 4.976562 -1.96875 5.0625 -2.332031 5.0625 -2.75 Z M 5.0625 -2.75 "/></g></g></g><g fill="#ffffff" fill-opacity="1"><g transform="translate(149.043374, 238.674282)"><g><path d="M 1.671875 -4.578125 C 1.835938 -4.890625 2.066406 -5.132812 2.359375 -5.3125 C 2.660156 -5.488281 3.019531 -5.578125 3.4375 -5.578125 L 3.4375 -4.625 L 3.203125 -4.625 C 2.179688 -4.625 1.671875 -4.070312 1.671875 -2.96875 L 1.671875 0 L 0.765625 0 L 0.765625 -5.46875 L 1.671875 -5.46875 Z M 1.671875 -4.578125 "/></g></g></g><g fill="#ffffff" fill-opacity="1"><g transform="translate(152.768131, 238.674282)"><g><path d="M 5.765625 -2.953125 C 5.765625 -2.773438 5.753906 -2.585938 5.734375 -2.390625 L 1.359375 -2.390625 C 1.390625 -1.859375 1.570312 -1.4375 1.90625 -1.125 C 2.25 -0.820312 2.660156 -0.671875 3.140625 -0.671875 C 3.523438 -0.671875 3.847656 -0.765625 4.109375 -0.953125 C 4.378906 -1.140625 4.566406 -1.382812 4.671875 -1.6875 L 5.65625 -1.6875 C 5.507812 -1.164062 5.210938 -0.738281 4.765625 -0.40625 C 4.328125 -0.0703125 3.785156 0.09375 3.140625 0.09375 C 2.617188 0.09375 2.148438 -0.0195312 1.734375 -0.25 C 1.328125 -0.488281 1.003906 -0.820312 0.765625 -1.25 C 0.535156 -1.675781 0.421875 -2.175781 0.421875 -2.75 C 0.421875 -3.3125 0.535156 -3.804688 0.765625 -4.234375 C 0.992188 -4.660156 1.3125 -4.988281 1.71875 -5.21875 C 2.132812 -5.445312 2.609375 -5.5625 3.140625 -5.5625 C 3.648438 -5.5625 4.101562 -5.445312 4.5 -5.21875 C 4.90625 -4.988281 5.21875 -4.675781 5.4375 -4.28125 C 5.65625 -3.882812 5.765625 -3.441406 5.765625 -2.953125 Z M 4.828125 -3.140625 C 4.828125 -3.484375 4.75 -3.78125 4.59375 -4.03125 C 4.4375 -4.28125 4.226562 -4.46875 3.96875 -4.59375 C 3.707031 -4.726562 3.414062 -4.796875 3.09375 -4.796875 C 2.632812 -4.796875 2.242188 -4.644531 1.921875 -4.34375 C 1.597656 -4.050781 1.414062 -3.648438 1.375 -3.140625 Z M 4.828125 -3.140625 "/></g></g></g><g fill="#ffffff" fill-opacity="1"><g transform="translate(158.959417, 238.674282)"><g/></g></g><g fill="#ffffff" fill-opacity="1"><g transform="translate(161.625661, 238.674282)"><g><path d="M 4.875 -1.546875 L 1.84375 -1.546875 L 1.28125 0 L 0.328125 0 L 2.84375 -6.921875 L 3.890625 -6.921875 L 6.40625 0 L 5.4375 0 Z M 4.625 -2.28125 L 3.359375 -5.796875 L 2.109375 -2.28125 Z M 4.625 -2.28125 "/></g></g></g><g fill="#ffffff" fill-opacity="1"><g transform="translate(168.356185, 238.674282)"><g><path d="M 2.703125 0.09375 C 2.285156 0.09375 1.910156 0.0195312 1.578125 -0.125 C 1.242188 -0.269531 0.976562 -0.46875 0.78125 -0.71875 C 0.59375 -0.976562 0.488281 -1.273438 0.46875 -1.609375 L 1.40625 -1.609375 C 1.4375 -1.335938 1.566406 -1.113281 1.796875 -0.9375 C 2.023438 -0.757812 2.328125 -0.671875 2.703125 -0.671875 C 3.046875 -0.671875 3.316406 -0.75 3.515625 -0.90625 C 3.710938 -1.0625 3.8125 -1.253906 3.8125 -1.484375 C 3.8125 -1.722656 3.703125 -1.898438 3.484375 -2.015625 C 3.273438 -2.140625 2.945312 -2.253906 2.5 -2.359375 C 2.09375 -2.472656 1.757812 -2.582031 1.5 -2.6875 C 1.25 -2.800781 1.03125 -2.960938 0.84375 -3.171875 C 0.664062 -3.390625 0.578125 -3.675781 0.578125 -4.03125 C 0.578125 -4.3125 0.660156 -4.566406 0.828125 -4.796875 C 0.992188 -5.035156 1.226562 -5.222656 1.53125 -5.359375 C 1.84375 -5.492188 2.195312 -5.5625 2.59375 -5.5625 C 3.195312 -5.5625 3.679688 -5.40625 4.046875 -5.09375 C 4.421875 -4.789062 4.625 -4.375 4.65625 -3.84375 L 3.75 -3.84375 C 3.726562 -4.125 3.609375 -4.351562 3.390625 -4.53125 C 3.179688 -4.707031 2.90625 -4.796875 2.5625 -4.796875 C 2.226562 -4.796875 1.960938 -4.722656 1.765625 -4.578125 C 1.578125 -4.441406 1.484375 -4.257812 1.484375 -4.03125 C 1.484375 -3.851562 1.539062 -3.707031 1.65625 -3.59375 C 1.78125 -3.476562 1.925781 -3.382812 2.09375 -3.3125 C 2.269531 -3.238281 2.515625 -3.160156 2.828125 -3.078125 C 3.222656 -2.972656 3.539062 -2.867188 3.78125 -2.765625 C 4.03125 -2.660156 4.242188 -2.503906 4.421875 -2.296875 C 4.597656 -2.085938 4.691406 -1.816406 4.703125 -1.484375 C 4.703125 -1.179688 4.617188 -0.910156 4.453125 -0.671875 C 4.285156 -0.429688 4.050781 -0.242188 3.75 -0.109375 C 3.445312 0.0234375 3.097656 0.09375 2.703125 0.09375 Z M 2.703125 0.09375 "/></g></g></g><g fill="#ffffff" fill-opacity="1"><g transform="translate(173.568848, 238.674282)"><g><path d="M 2.703125 0.09375 C 2.285156 0.09375 1.910156 0.0195312 1.578125 -0.125 C 1.242188 -0.269531 0.976562 -0.46875 0.78125 -0.71875 C 0.59375 -0.976562 0.488281 -1.273438 0.46875 -1.609375 L 1.40625 -1.609375 C 1.4375 -1.335938 1.566406 -1.113281 1.796875 -0.9375 C 2.023438 -0.757812 2.328125 -0.671875 2.703125 -0.671875 C 3.046875 -0.671875 3.316406 -0.75 3.515625 -0.90625 C 3.710938 -1.0625 3.8125 -1.253906 3.8125 -1.484375 C 3.8125 -1.722656 3.703125 -1.898438 3.484375 -2.015625 C 3.273438 -2.140625 2.945312 -2.253906 2.5 -2.359375 C 2.09375 -2.472656 1.757812 -2.582031 1.5 -2.6875 C 1.25 -2.800781 1.03125 -2.960938 0.84375 -3.171875 C 0.664062 -3.390625 0.578125 -3.675781 0.578125 -4.03125 C 0.578125 -4.3125 0.660156 -4.566406 0.828125 -4.796875 C 0.992188 -5.035156 1.226562 -5.222656 1.53125 -5.359375 C 1.84375 -5.492188 2.195312 -5.5625 2.59375 -5.5625 C 3.195312 -5.5625 3.679688 -5.40625 4.046875 -5.09375 C 4.421875 -4.789062 4.625 -4.375 4.65625 -3.84375 L 3.75 -3.84375 C 3.726562 -4.125 3.609375 -4.351562 3.390625 -4.53125 C 3.179688 -4.707031 2.90625 -4.796875 2.5625 -4.796875 C 2.226562 -4.796875 1.960938 -4.722656 1.765625 -4.578125 C 1.578125 -4.441406 1.484375 -4.257812 1.484375 -4.03125 C 1.484375 -3.851562 1.539062 -3.707031 1.65625 -3.59375 C 1.78125 -3.476562 1.925781 -3.382812 2.09375 -3.3125 C 2.269531 -3.238281 2.515625 -3.160156 2.828125 -3.078125 C 3.222656 -2.972656 3.539062 -2.867188 3.78125 -2.765625 C 4.03125 -2.660156 4.242188 -2.503906 4.421875 -2.296875 C 4.597656 -2.085938 4.691406 -1.816406 4.703125 -1.484375 C 4.703125 -1.179688 4.617188 -0.910156 4.453125 -0.671875 C 4.285156 -0.429688 4.050781 -0.242188 3.75 -0.109375 C 3.445312 0.0234375 3.097656 0.09375 2.703125 0.09375 Z M 2.703125 0.09375 "/></g></g></g><g fill="#ffffff" fill-opacity="1"><g transform="translate(178.781512, 238.674282)"><g><path d="M 1.234375 -6.359375 C 1.066406 -6.359375 0.921875 -6.414062 0.796875 -6.53125 C 0.679688 -6.65625 0.625 -6.804688 0.625 -6.984375 C 0.625 -7.148438 0.679688 -7.289062 0.796875 -7.40625 C 0.921875 -7.53125 1.066406 -7.59375 1.234375 -7.59375 C 1.398438 -7.59375 1.539062 -7.53125 1.65625 -7.40625 C 1.78125 -7.289062 1.84375 -7.148438 1.84375 -6.984375 C 1.84375 -6.804688 1.78125 -6.65625 1.65625 -6.53125 C 1.539062 -6.414062 1.398438 -6.359375 1.234375 -6.359375 Z M 1.671875 -5.46875 L 1.671875 0 L 0.765625 0 L 0.765625 -5.46875 Z M 1.671875 -5.46875 "/></g></g></g><g fill="#ffffff" fill-opacity="1"><g transform="translate(181.238049, 238.674282)"><g><path d="M 2.703125 0.09375 C 2.285156 0.09375 1.910156 0.0195312 1.578125 -0.125 C 1.242188 -0.269531 0.976562 -0.46875 0.78125 -0.71875 C 0.59375 -0.976562 0.488281 -1.273438 0.46875 -1.609375 L 1.40625 -1.609375 C 1.4375 -1.335938 1.566406 -1.113281 1.796875 -0.9375 C 2.023438 -0.757812 2.328125 -0.671875 2.703125 -0.671875 C 3.046875 -0.671875 3.316406 -0.75 3.515625 -0.90625 C 3.710938 -1.0625 3.8125 -1.253906 3.8125 -1.484375 C 3.8125 -1.722656 3.703125 -1.898438 3.484375 -2.015625 C 3.273438 -2.140625 2.945312 -2.253906 2.5 -2.359375 C 2.09375 -2.472656 1.757812 -2.582031 1.5 -2.6875 C 1.25 -2.800781 1.03125 -2.960938 0.84375 -3.171875 C 0.664062 -3.390625 0.578125 -3.675781 0.578125 -4.03125 C 0.578125 -4.3125 0.660156 -4.566406 0.828125 -4.796875 C 0.992188 -5.035156 1.226562 -5.222656 1.53125 -5.359375 C 1.84375 -5.492188 2.195312 -5.5625 2.59375 -5.5625 C 3.195312 -5.5625 3.679688 -5.40625 4.046875 -5.09375 C 4.421875 -4.789062 4.625 -4.375 4.65625 -3.84375 L 3.75 -3.84375 C 3.726562 -4.125 3.609375 -4.351562 3.390625 -4.53125 C 3.179688 -4.707031 2.90625 -4.796875 2.5625 -4.796875 C 2.226562 -4.796875 1.960938 -4.722656 1.765625 -4.578125 C 1.578125 -4.441406 1.484375 -4.257812 1.484375 -4.03125 C 1.484375 -3.851562 1.539062 -3.707031 1.65625 -3.59375 C 1.78125 -3.476562 1.925781 -3.382812 2.09375 -3.3125 C 2.269531 -3.238281 2.515625 -3.160156 2.828125 -3.078125 C 3.222656 -2.972656 3.539062 -2.867188 3.78125 -2.765625 C 4.03125 -2.660156 4.242188 -2.503906 4.421875 -2.296875 C 4.597656 -2.085938 4.691406 -1.816406 4.703125 -1.484375 C 4.703125 -1.179688 4.617188 -0.910156 4.453125 -0.671875 C 4.285156 -0.429688 4.050781 -0.242188 3.75 -0.109375 C 3.445312 0.0234375 3.097656 0.09375 2.703125 0.09375 Z M 2.703125 0.09375 "/></g></g></g><g fill="#ffffff" fill-opacity="1"><g transform="translate(186.450713, 238.674282)"><g><path d="M 1.875 -4.71875 L 1.875 -1.5 C 1.875 -1.226562 1.929688 -1.035156 2.046875 -0.921875 C 2.160156 -0.816406 2.359375 -0.765625 2.640625 -0.765625 L 3.3125 -0.765625 L 3.3125 0 L 2.484375 0 C 1.984375 0 1.601562 -0.113281 1.34375 -0.34375 C 1.09375 -0.582031 0.96875 -0.96875 0.96875 -1.5 L 0.96875 -4.71875 L 0.265625 -4.71875 L 0.265625 -5.46875 L 0.96875 -5.46875 L 0.96875 -6.84375 L 1.875 -6.84375 L 1.875 -5.46875 L 3.3125 -5.46875 L 3.3125 -4.71875 Z M 1.875 -4.71875 "/></g></g></g><g fill="#ffffff" fill-opacity="1"><g transform="translate(190.085599, 238.674282)"><g><path d="M 0.421875 -2.75 C 0.421875 -3.3125 0.535156 -3.800781 0.765625 -4.21875 C 0.992188 -4.644531 1.304688 -4.972656 1.703125 -5.203125 C 2.097656 -5.441406 2.539062 -5.5625 3.03125 -5.5625 C 3.507812 -5.5625 3.921875 -5.457031 4.265625 -5.25 C 4.617188 -5.039062 4.882812 -4.78125 5.0625 -4.46875 L 5.0625 -5.46875 L 5.984375 -5.46875 L 5.984375 0 L 5.0625 0 L 5.0625 -1.015625 C 4.882812 -0.703125 4.613281 -0.4375 4.25 -0.21875 C 3.894531 -0.0078125 3.484375 0.09375 3.015625 0.09375 C 2.523438 0.09375 2.082031 -0.0234375 1.6875 -0.265625 C 1.300781 -0.503906 0.992188 -0.835938 0.765625 -1.265625 C 0.535156 -1.703125 0.421875 -2.195312 0.421875 -2.75 Z M 5.0625 -2.75 C 5.0625 -3.15625 4.976562 -3.507812 4.8125 -3.8125 C 4.644531 -4.125 4.421875 -4.359375 4.140625 -4.515625 C 3.859375 -4.679688 3.546875 -4.765625 3.203125 -4.765625 C 2.867188 -4.765625 2.5625 -4.6875 2.28125 -4.53125 C 2 -4.375 1.773438 -4.140625 1.609375 -3.828125 C 1.441406 -3.523438 1.359375 -3.164062 1.359375 -2.75 C 1.359375 -2.332031 1.441406 -1.96875 1.609375 -1.65625 C 1.773438 -1.351562 2 -1.117188 2.28125 -0.953125 C 2.5625 -0.785156 2.867188 -0.703125 3.203125 -0.703125 C 3.546875 -0.703125 3.859375 -0.785156 4.140625 -0.953125 C 4.421875 -1.117188 4.644531 -1.351562 4.8125 -1.65625 C 4.976562 -1.96875 5.0625 -2.332031 5.0625 -2.75 Z M 5.0625 -2.75 "/></g></g></g><g fill="#ffffff" fill-opacity="1"><g transform="translate(196.836095, 238.674282)"><g><path d="M 3.4375 -5.578125 C 4.101562 -5.578125 4.640625 -5.375 5.046875 -4.96875 C 5.460938 -4.5625 5.671875 -3.976562 5.671875 -3.21875 L 5.671875 0 L 4.765625 0 L 4.765625 -3.09375 C 4.765625 -3.632812 4.628906 -4.050781 4.359375 -4.34375 C 4.085938 -4.632812 3.71875 -4.78125 3.25 -4.78125 C 2.769531 -4.78125 2.382812 -4.628906 2.09375 -4.328125 C 1.8125 -4.035156 1.671875 -3.601562 1.671875 -3.03125 L 1.671875 0 L 0.765625 0 L 0.765625 -5.46875 L 1.671875 -5.46875 L 1.671875 -4.6875 C 1.859375 -4.96875 2.101562 -5.1875 2.40625 -5.34375 C 2.71875 -5.5 3.0625 -5.578125 3.4375 -5.578125 Z M 3.4375 -5.578125 "/></g></g></g><g fill="#ffffff" fill-opacity="1"><g transform="translate(203.227095, 238.674282)"><g><path d="M 1.875 -4.71875 L 1.875 -1.5 C 1.875 -1.226562 1.929688 -1.035156 2.046875 -0.921875 C 2.160156 -0.816406 2.359375 -0.765625 2.640625 -0.765625 L 3.3125 -0.765625 L 3.3125 0 L 2.484375 0 C 1.984375 0 1.601562 -0.113281 1.34375 -0.34375 C 1.09375 -0.582031 0.96875 -0.96875 0.96875 -1.5 L 0.96875 -4.71875 L 0.265625 -4.71875 L 0.265625 -5.46875 L 0.96875 -5.46875 L 0.96875 -6.84375 L 1.875 -6.84375 L 1.875 -5.46875 L 3.3125 -5.46875 L 3.3125 -4.71875 Z M 1.875 -4.71875 "/></g></g></g><g fill="#ffffff" fill-opacity="1"><g transform="translate(206.861981, 238.674282)"><g><path d="M 1.953125 -6.953125 L 1.84375 -1.96875 L 1.078125 -1.96875 L 0.96875 -6.953125 Z M 1.5 0.0625 C 1.320312 0.0625 1.171875 0.00390625 1.046875 -0.109375 C 0.929688 -0.234375 0.875 -0.382812 0.875 -0.5625 C 0.875 -0.726562 0.929688 -0.867188 1.046875 -0.984375 C 1.171875 -1.109375 1.320312 -1.171875 1.5 -1.171875 C 1.664062 -1.171875 1.804688 -1.109375 1.921875 -0.984375 C 2.035156 -0.867188 2.09375 -0.726562 2.09375 -0.5625 C 2.09375 -0.382812 2.035156 -0.234375 1.921875 -0.109375 C 1.804688 0.00390625 1.664062 0.0625 1.5 0.0625 Z M 1.5 0.0625 "/></g></g></g></svg>