<svg xmlns="http://www.w3.org/2000/svg" xmlns:xlink="http://www.w3.org/1999/xlink" width="228" zoomAndPan="magnify" viewBox="0 0 171 171.000002" height="228" preserveAspectRatio="xMidYMid meet" version="1.0"><defs><clipPath id="0bde9f7778"><path d="M 0.496094 0 L 170.046875 0 L 170.046875 169.550781 L 0.496094 169.550781 Z M 0.496094 0 " clip-rule="nonzero"/></clipPath><clipPath id="d4c33cb2c3"><path d="M 85.269531 169.550781 C 132.09375 169.550781 170.046875 131.59375 170.046875 84.773438 C 170.046875 37.953125 132.09375 -0.00390625 85.269531 -0.00390625 C 38.449219 -0.00390625 0.496094 37.953125 0.496094 84.773438 C 0.496094 131.59375 38.449219 169.550781 85.269531 169.550781 Z M 85.269531 169.550781 " clip-rule="nonzero"/></clipPath><clipPath id="3b2ac85f80"><path d="M 8.785156 8.289062 L 170.042969 8.289062 L 170.042969 169.542969 L 8.785156 169.542969 Z M 8.785156 8.289062 " clip-rule="nonzero"/></clipPath><clipPath id="f4457bce49"><path d="M 89.414062 169.542969 C 133.941406 169.542969 170.042969 133.445312 170.042969 88.917969 C 170.042969 44.386719 133.941406 8.289062 89.414062 8.289062 C 44.882812 8.289062 8.785156 44.386719 8.785156 88.917969 C 8.785156 133.445312 44.882812 169.542969 89.414062 169.542969 Z M 89.414062 169.542969 " clip-rule="nonzero"/></clipPath><clipPath id="b57c656ccd"><path d="M 19.3125 18.816406 L 161.796875 18.816406 L 161.796875 161.296875 L 19.3125 161.296875 Z M 19.3125 18.816406 " clip-rule="nonzero"/></clipPath><clipPath id="08f4cc47ee"><path d="M 90.554688 161.296875 C 129.898438 161.296875 161.796875 129.402344 161.796875 90.058594 C 161.796875 50.710938 129.898438 18.816406 90.554688 18.816406 C 51.210938 18.816406 19.3125 50.710938 19.3125 90.058594 C 19.3125 129.402344 51.210938 161.296875 90.554688 161.296875 Z M 90.554688 161.296875 " clip-rule="nonzero"/></clipPath><clipPath id="ca9f515c9f"><path d="M 19.308594 18.8125 L 154.816406 18.8125 L 154.816406 154.320312 L 19.308594 154.320312 Z M 19.308594 18.8125 " clip-rule="nonzero"/></clipPath><clipPath id="1f0de51a37"><path d="M 87.0625 154.320312 C 124.484375 154.320312 154.816406 123.984375 154.816406 86.566406 C 154.816406 49.148438 124.484375 18.8125 87.0625 18.8125 C 49.644531 18.8125 19.308594 49.148438 19.308594 86.566406 C 19.308594 123.984375 49.644531 154.320312 87.0625 154.320312 Z M 87.0625 154.320312 " clip-rule="nonzero"/></clipPath><clipPath id="0f0b8d04bb"><path d="M 34.964844 37.945312 L 133 37.945312 L 133 155.007812 L 34.964844 155.007812 Z M 34.964844 37.945312 " clip-rule="nonzero"/></clipPath></defs><g clip-path="url(#0bde9f7778)"><g clip-path="url(#d4c33cb2c3)"><path fill="#ffffff" d="M 170.046875 169.550781 L 0.496094 169.550781 L 0.496094 -0.00390625 L 170.046875 -0.00390625 Z M 170.046875 169.550781 " fill-opacity="1" fill-rule="nonzero"/></g></g><g clip-path="url(#3b2ac85f80)"><g clip-path="url(#f4457bce49)"><path fill="#3e6606" d="M 170.042969 169.542969 L 8.785156 169.542969 L 8.785156 8.289062 L 170.042969 8.289062 Z M 170.042969 169.542969 " fill-opacity="1" fill-rule="nonzero"/></g></g><g clip-path="url(#b57c656ccd)"><g clip-path="url(#08f4cc47ee)"><path fill="#ffffff" d="M 161.796875 161.296875 L 19.3125 161.296875 L 19.3125 18.816406 L 161.796875 18.816406 Z M 161.796875 161.296875 " fill-opacity="1" fill-rule="nonzero"/></g></g><g clip-path="url(#ca9f515c9f)"><g clip-path="url(#1f0de51a37)"><path fill="#3e6606" d="M 154.816406 154.320312 L 19.308594 154.320312 L 19.308594 18.8125 L 154.816406 18.8125 Z M 154.816406 154.320312 " fill-opacity="1" fill-rule="nonzero"/></g></g><g clip-path="url(#0f0b8d04bb)"><path fill="#ffffff" d="M 88.800781 126.714844 C 87.65625 128.195312 88.019531 129.003906 89.863281 129.132812 C 102.160156 128.847656 113.753906 123.335938 121.734375 113.976562 C 129.714844 104.621094 133.300781 92.273438 131.613281 80.082031 C 118.796875 96.71875 88.226562 98.382812 84.796875 119.359375 C 83.859375 104.386719 83.390625 89.414062 84.898438 74.492188 C 96.414062 58.582031 105.695312 50.5 124.023438 44.390625 C 102.601562 41.140625 89.320312 49.433594 84.199219 69.191406 C 85.652344 53.125 78.816406 43.117188 63.039062 37.945312 C 74.503906 46.523438 77.960938 56.945312 82.144531 70.851562 C 81.054688 79.875 80.429688 88.972656 80.117188 98.042969 C 78.582031 90.324219 74.320312 83.253906 68.160156 77.949219 C 59.375 70.4375 46.140625 67.03125 34.992188 70.125 C 52.25 79.222656 42.035156 108.804688 76.816406 107.871094 C 73.175781 96.5625 65.636719 85.203125 54.042969 79.535156 C 64.339844 81.875 72.839844 90.53125 77.570312 100.277344 C 80.820312 106.933594 79.960938 114.679688 79.777344 122.011719 C 79.441406 136.019531 80.480469 146.003906 80.949219 160.015625 L 87.292969 159.9375 C 86.925781 148.886719 81.988281 127.546875 88.695312 119.152344 C 94.492188 111.898438 104.109375 104.257812 114.691406 100.566406 C 106.085938 105.839844 94.464844 117.199219 88.800781 126.714844 " fill-opacity="1" fill-rule="evenodd"/></g></svg>